<?xml version="1.0" encoding="utf-8"?>
<!-- Generator: Adobe Illustrator 22.1.0, SVG Export Plug-In . SVG Version: 6.00 Build 0)  -->
<svg version="1.1" id="Layer_1" xmlns="http://www.w3.org/2000/svg" xmlns:xlink="http://www.w3.org/1999/xlink" x="0px" y="0px"
	 viewBox="0 0 26.3 26.3" style="enable-background:new 0 0 26.3 26.3;" xml:space="preserve">
<style type="text/css">
	.st0{display:none;}
	.st1{fill:#31A149;}
</style>
<g id="mail" class="st0">
</g>
<g id="Layer_3" class="st0">
</g>
<g>
	<path class="st1" d="M26.3,7.5c-0.1-2.2-0.6-4.4-1.4-6.4c-1.9,0.6-3.6,1.4-5.2,2.6c-1.4,1-2.7,2.3-3.8,3.7c-1.2,1.5-2.1,3.2-2.7,5
		c-0.7,1.9-1,4-1,6c0,2.1,0.4,4.1,1.2,6c0.1,0.2,0.2,0.5,0.3,0.7c2.9-0.9,5.6-2.5,7.7-4.7c2.1-2.2,3.6-4.9,4.4-7.8
		C26.2,11,26.4,9.2,26.3,7.5z"/>
	<path class="st1" d="M10.7,11.5c0.3-0.8,0.6-1.6,1-2.3c-0.8-1.4-1.9-2.7-3.1-3.9c-1.3-1.2-2.7-2.2-4.3-3C3.4,1.8,2.5,1.4,1.5,1.1
		C0.7,2.8,0.3,4.6,0.1,6.5c-0.2,1.8-0.1,3.6,0.3,5.4c0.4,1.7,1,3.4,1.9,4.9c0.9,1.6,2,3,3.3,4.2c1.3,1.3,2.8,2.3,4.5,3.1
		c0.2,0.1,0.4,0.2,0.6,0.3C9.2,20.2,9.3,15.6,10.7,11.5z"/>
</g>
</svg>
