<?xml version="1.0" encoding="utf-8"?>
<!-- Generator: Adobe Illustrator 22.1.0, SVG Export Plug-In . SVG Version: 6.00 Build 0)  -->
<svg version="1.1" id="Layer_1" xmlns="http://www.w3.org/2000/svg" xmlns:xlink="http://www.w3.org/1999/xlink" x="0px" y="0px"
	 viewBox="0 0 124.6 26.3" style="enable-background:new 0 0 124.6 26.3;" xml:space="preserve">
<style type="text/css">
	.st0{display:none;}
	.st1{fill:#262826;}
	.st2{fill:#31A149;}
</style>
<g id="mail" class="st0">
</g>
<g id="Layer_3" class="st0">
</g>
<g>
	<g>
		<path class="st1" d="M38.4,21.5v-16h6.3c2.5,0,4.5,0.8,6.1,2.3c1.6,1.5,2.4,3.4,2.4,5.7c0,2.3-0.8,4.2-2.4,5.7
			c-1.6,1.5-3.6,2.3-6.1,2.3H38.4z M41.9,18.4h2.7c1.4,0,2.6-0.4,3.5-1.3c0.9-0.9,1.3-2.1,1.3-3.5c0-1.4-0.4-2.6-1.3-3.5
			c-0.9-0.9-2.1-1.4-3.5-1.4h-2.7V18.4z"/>
		<path class="st1" d="M60,21.8c-1.3,0-2.3-0.4-3.1-1.2c-0.7-0.8-1.1-1.9-1.1-3.3V9.3h3.5v6.8c0,0.8,0.2,1.4,0.5,1.9
			c0.4,0.4,0.9,0.6,1.6,0.6c0.7,0,1.2-0.2,1.6-0.6c0.4-0.4,0.6-1,0.6-1.9V9.3h3.5v12.3h-3.5v-1.7C62.6,21.1,61.4,21.8,60,21.8z"/>
		<path class="st1" d="M75.7,21.6L69.2,5.5h3.9l4.2,11.3l4.2-11.3h3.8l-6.5,16.1H75.7z"/>
		<path class="st1" d="M89.2,21.8c-1.2,0-2.2-0.3-3-1C85.4,20.1,85,19.2,85,18c0-1.3,0.4-2.3,1.3-2.9c0.9-0.7,2.1-1,3.6-1
			c1,0,2,0.2,3,0.5v-0.2c0-1.5-0.9-2.2-2.6-2.2c-1.1,0-2.2,0.2-3.4,0.7l-0.9-2.7c1.5-0.7,3.1-1,4.8-1c1.8,0,3.2,0.5,4.1,1.4
			c0.9,0.9,1.3,2.2,1.3,3.9v7.1h-3.4v-1.3C92,21.2,90.8,21.8,89.2,21.8z M90.3,19.4c0.8,0,1.5-0.2,2-0.6c0.5-0.4,0.8-0.9,0.8-1.5
			v-0.6c-0.7-0.3-1.4-0.5-2.2-0.5c-0.8,0-1.4,0.1-1.8,0.4c-0.4,0.3-0.6,0.7-0.6,1.3c0,0.5,0.2,0.8,0.5,1.1
			C89.3,19.2,89.7,19.4,90.3,19.4z"/>
		<path class="st1" d="M99.5,21.5V4.8h3.5v16.7H99.5z"/>
		<path class="st1" d="M106.4,21.5V4.8h3.5v16.7H106.4z"/>
		<path class="st1" d="M119,21.8c-1.9,0-3.4-0.6-4.6-1.8c-1.2-1.2-1.8-2.7-1.8-4.6c0-1.8,0.6-3.3,1.7-4.5c1.1-1.2,2.6-1.9,4.4-1.9
			c1.9,0,3.4,0.6,4.4,1.9c1,1.3,1.5,2.9,1.5,4.7c0,0.2,0,0.5,0,0.9H116c0.2,0.8,0.5,1.4,1,1.8c0.5,0.4,1.2,0.6,2,0.6
			c1.1,0,2.1-0.4,3-1.3l2,1.8C122.7,21,121.1,21.8,119,21.8z M116,14.4h5.2c-0.1-0.8-0.4-1.4-0.8-1.9c-0.5-0.5-1-0.7-1.8-0.7
			c-0.7,0-1.3,0.2-1.8,0.7C116.4,13,116.1,13.6,116,14.4z"/>
	</g>
	<g>
		<path class="st2" d="M26.3,7.8c-0.1-2.2-0.6-4.4-1.4-6.4C23,2,21.2,2.8,19.6,4c-1.4,1-2.7,2.3-3.8,3.7c-1.2,1.5-2.1,3.2-2.7,5
			c-0.7,1.9-1,4-1,6.1c0,2.1,0.4,4.1,1.2,6c0.1,0.2,0.2,0.5,0.3,0.7c2.9-0.9,5.6-2.5,7.7-4.7c2.1-2.2,3.6-4.9,4.4-7.8
			C26.2,11.2,26.4,9.5,26.3,7.8z"/>
		<path class="st2" d="M10.7,11.7c0.3-0.8,0.6-1.6,1-2.3C10.9,8,9.8,6.7,8.6,5.6c-1.3-1.2-2.7-2.2-4.3-3C3.4,2.1,2.5,1.7,1.5,1.4
			C0.7,3.1,0.3,4.9,0.1,6.8c-0.2,1.8-0.1,3.6,0.3,5.4c0.4,1.7,1,3.4,1.9,4.9c0.9,1.6,2,3,3.3,4.2c1.3,1.3,2.8,2.3,4.5,3.1
			c0.2,0.1,0.4,0.2,0.6,0.3C9.2,20.5,9.3,15.9,10.7,11.7z"/>
	</g>
</g>
</svg>
