<?xml version="1.0" encoding="utf-8"?>
<!-- Generator: Adobe Illustrator 22.1.0, SVG Export Plug-In . SVG Version: 6.00 Build 0)  -->
<svg version="1.1" xmlns="http://www.w3.org/2000/svg" xmlns:xlink="http://www.w3.org/1999/xlink" x="0px" y="0px"
	 viewBox="0 0 26.2 26.2" style="enable-background:new 0 0 26.2 26.2;" xml:space="preserve">
<style type="text/css">
	.st0{fill:none;}
	.st1{display:none;}
	.st2{display:inline;fill:#319B42;}
	.st3{display:inline;fill:none;stroke:#319B42;stroke-width:2;stroke-miterlimit:10;}
	.st4{fill:#FFFFFF;}
	.st5{display:inline;}
	.st6{fill:#31A149;}
	.st7{fill:none;stroke:#D64545;stroke-width:2;stroke-miterlimit:10;}
	.st8{display:none;fill:#319B42;}
</style>
<g id="Layer_1">
	<rect x="0" y="0" class="st0" width="26.2" height="26.2"/>
	<g id="phone_1_" class="st1">
		<path id="phone" class="st2" d="M20.5,20.4l-0.4,0.3c-1.5,1-3.5,1.1-5,0l0,0c-3.8-2.6-7-5.8-9.5-9.5l0,0c-1-1.5-1-3.5,0-5l0.3-0.4
			c0.6-0.8,1.8-0.9,2.5-0.2l1.9,1.9c0.5,0.5,0.6,1.2,0.3,1.9L10,10.7C9.8,11,9.9,11.2,10,11.4l0,0c1.3,1.9,2.9,3.5,4.8,4.8l0,0
			c0.2,0.1,0.5,0.2,0.7,0.1l1.5-0.7c0.6-0.3,1.4-0.2,1.9,0.3l1.9,1.9C21.5,18.6,21.3,19.8,20.5,20.4z"/>
	</g>
	<g id="hamburger" class="st1">
		<line class="st3" x1="2.6" y1="6.1" x2="23.6" y2="6.1"/>
		<line class="st3" x1="2.6" y1="20.1" x2="23.6" y2="20.1"/>
		<line class="st3" x1="2.6" y1="13.1" x2="23.6" y2="13.1"/>
	</g>
	<g>
		<path class="st4" d="M11.1,14.2L2.6,9.1V19c0,1.2,1,2.1,2.1,2.1h16.7c1.2,0,2.1-1,2.1-2.1V9.1l-8.5,5.2C13.9,15,12.3,15,11.1,14.2
			z"/>
		<path class="st4" d="M23.6,6.3L23.6,6.3c0-0.7-0.5-1.2-1.2-1.2H3.8c-0.7,0-1.2,0.5-1.2,1.2v0c0,0.2,0.1,0.4,0.3,0.5l9.2,5.6
			c0.6,0.4,1.4,0.4,2.1,0l9.2-5.6C23.5,6.7,23.6,6.5,23.6,6.3z"/>
	</g>
	<g id="arrow" class="st1">
		<polyline class="st3" points="16.6,6.1 9.6,13.1 16.6,20.1 		"/>
	</g>
	<g class="st1">
		<path class="st2" d="M26.2,7.5c-0.1-2-0.5-4-1.3-5.9c0-0.1-0.1-0.2-0.1-0.3c0,0,0-0.1,0-0.1c-0.1-0.1,0,0-0.1,0
			c-0.1,0-0.1,0-0.2,0.1c-0.2,0.1-0.5,0.2-0.7,0.2c-0.5,0.2-0.9,0.4-1.4,0.6c-0.8,0.4-1.6,0.8-2.4,1.3c-1.4,0.9-2.7,2.1-3.8,3.4
			c-1.2,1.4-2.1,3-2.8,4.7c-0.7,1.8-1.2,3.8-1.3,5.8c-0.1,2,0.1,4,0.7,5.9c0.1,0.5,0.3,0.9,0.5,1.4c0,0.1,0.1,0.2,0.1,0.3
			c0,0.1,0,0.1,0.1,0.2c0,0,0,0.1,0,0.1c0,0,0.1,0,0.1,0c0.2-0.1,0.5-0.2,0.7-0.2c0.9-0.3,1.8-0.7,2.7-1.2c1.8-1,3.3-2.2,4.7-3.8
			c1.3-1.5,2.4-3.2,3.1-5C25.7,13,26.1,11,26.2,9C26.2,8.5,26.2,8,26.2,7.5z"/>
		<path class="st2" d="M10.7,11.4c0.2-0.6,0.5-1.3,0.8-1.9c0-0.1,0.1-0.1,0.1-0.2c0,0,0-0.1,0.1-0.1c0-0.1,0,0,0-0.1
			c0-0.1-0.1-0.1-0.1-0.2c0-0.1-0.1-0.2-0.1-0.2c-0.2-0.3-0.4-0.5-0.5-0.8c-0.8-1.1-1.6-2-2.6-2.9C7.2,4,6.1,3.2,4.9,2.5
			c-0.6-0.3-1.3-0.6-2-0.9C2.6,1.5,2.2,1.4,1.9,1.2c-0.1,0-0.2-0.1-0.2-0.1c0,0-0.1,0-0.1,0c0,0,0,0,0,0c0,0,0,0.1,0,0.1
			C1.3,1.4,1.3,1.6,1.2,1.8c-1.1,2.7-1.4,5.7-1,8.7c0.4,2.8,1.4,5.4,3,7.7c1.6,2.4,3.9,4.4,6.4,5.7c0.3,0.2,0.6,0.3,1,0.5
			c-0.5-1.6-0.8-3.3-0.9-5c-0.1-1.7,0-3.4,0.3-5.1C10.1,13.3,10.4,12.3,10.7,11.4z"/>
	</g>
	<g id="logo_duvalle" transform="translate(-392.516 -402.787)" class="st1">
		<g id="Group_52" transform="translate(430.668 406.204)" class="st5">
			<path id="Path_57" d="M0.7,18.1V1.9H7c2.3-0.1,4.5,0.7,6.2,2.3c3.2,3.2,3.2,8.4,0,11.6c0,0,0,0,0,0c-1.7,1.6-3.9,2.4-6.2,2.3
				L0.7,18.1z M4.3,14.9H7c2.7,0.1,4.9-2.1,5-4.8c0.1-2.7-2.1-4.9-4.8-5c-0.1,0-0.2,0-0.2,0H4.3V14.9z"/>
			<path id="Path_58" d="M22.6,18.4c-1.2,0.1-2.3-0.4-3.1-1.2c-0.8-0.9-1.2-2.2-1.1-3.4v-8h3.5v6.9c0,0.7,0.2,1.3,0.6,1.9
				c0.4,0.4,1,0.7,1.6,0.6c0.6,0,1.2-0.2,1.6-0.6c0.4-0.5,0.6-1.2,0.6-1.9V5.7h3.5v12.4h-3.5v-1.8C25.4,17.6,24,18.3,22.6,18.4z"/>
			<path id="Path_59" d="M38.4,18.2L31.9,1.9h3.9l4.2,11.4l4.2-11.4h3.8l-6.6,16.3H38.4z"/>
			<path id="Path_60" d="M52.2,18.4c-1.1,0-2.2-0.3-3-1c-0.8-0.7-1.3-1.7-1.2-2.8c-0.1-1.2,0.4-2.3,1.4-3c1.1-0.7,2.4-1.1,3.7-1
				c1,0,2.1,0.2,3,0.5v-0.2c0-1.5-0.9-2.3-2.7-2.3c-1.2,0-2.3,0.2-3.4,0.7L49,6.5c1.5-0.7,3.2-1,4.8-1c1.5-0.1,3,0.4,4.2,1.4
				c1,1.1,1.5,2.5,1.3,4v7.2h-3.4v-1.3C55,17.8,53.6,18.4,52.2,18.4z M53.3,15.9c0.7,0,1.4-0.2,2-0.6c0.5-0.4,0.8-1,0.8-1.6v-0.6
				c-0.7-0.3-1.5-0.5-2.2-0.5c-0.6,0-1.3,0.1-1.8,0.5c-0.4,0.3-0.7,0.8-0.6,1.3c0,0.4,0.2,0.8,0.5,1.1
				C52.3,15.8,52.8,15.9,53.3,15.9L53.3,15.9z"/>
			<path id="Path_61" d="M62.6,18.1V1.2h3.5v16.9L62.6,18.1z"/>
			<path id="Path_62" d="M69.6,18.1V1.2h3.5v16.9L69.6,18.1z"/>
			<path id="Path_63" d="M82.3,18.4c-1.7,0.1-3.4-0.6-4.7-1.8c-1.2-1.2-1.9-2.9-1.8-4.7c0-1.7,0.6-3.3,1.7-4.6
				c1.1-1.2,2.7-1.9,4.4-1.9c1.7-0.1,3.4,0.6,4.5,1.9c1.1,1.4,1.6,3.1,1.6,4.8c0,0.2,0,0.5,0,0.9h-8.6c0.1,0.7,0.5,1.3,1,1.8
				c0.6,0.4,1.3,0.7,2,0.6c1.1,0,2.2-0.5,3-1.3l2,1.8C86.1,17.6,84.3,18.5,82.3,18.4z M79.3,10.9h5.3c-0.1-0.7-0.4-1.4-0.8-1.9
				c-0.5-0.5-1.1-0.7-1.8-0.7c-0.7,0-1.3,0.2-1.8,0.7C79.7,9.5,79.3,10.2,79.3,10.9z"/>
		</g>
		<g id="Group_53" transform="translate(392.516 402.787)" class="st5">
			<path id="Path_64" class="st6" d="M26.8,7.6c-0.1-2.2-0.6-4.4-1.5-6.4C15.8,4,10.4,14,13.2,23.5c0.1,0.4,0.3,0.9,0.4,1.3
				c0.1,0.2,0.2,0.5,0.3,0.7C21.8,23.1,27.1,15.8,26.8,7.6L26.8,7.6z"/>
			<path id="Path_65" class="st6" d="M11,11.6c0.3-0.8,0.6-1.6,1-2.3C9.7,5.3,6,2.4,1.6,1.1c-3.8,8.8,0,19.1,8.6,23.3
				c0.2,0.1,0.4,0.2,0.6,0.3C9.5,20.4,9.5,15.8,11,11.6z"/>
		</g>
	</g>
	<g id="check_icon" class="st1">
		<polyline class="st3" points="5.8,13.8 10.3,18.3 20.4,8.1 		"/>
	</g>
	<g id="top_nav" transform="translate(0.707 0.707)" class="st1">
		<g id="hamburger_1_" transform="translate(0 0)" class="st5">
			<line id="Line_5" class="st7" x1="5.1" y1="5.1" x2="19.7" y2="19.7"/>
			<line id="Line_6" class="st7" x1="5.1" y1="19.7" x2="19.7" y2="5.1"/>
		</g>
	</g>
	<path id="WhatsApp-2" class="st8" d="M23.6,12.9c-0.1,5.7-4.7,10.2-10.4,10.2c-1.7,0-3.4-0.5-4.9-1.3l-5.7,1.8l1.9-5.5
		c-1-1.6-1.5-3.4-1.5-5.3C3,7.2,7.6,2.6,13.3,2.6S23.6,7.2,23.6,12.9z M13.3,4.3c-4.8,0-8.6,3.8-8.7,8.6c0,1.8,0.6,3.6,1.7,5
		l-1.1,3.2L8.5,20c4,2.6,9.4,1.5,12-2.5c0.9-1.4,1.4-3,1.4-4.7C21.9,8.1,18.1,4.3,13.3,4.3z M18.5,15.2c-0.1-0.1-0.2-0.2-0.5-0.3
		c-0.3-0.1-1.5-0.7-1.7-0.8c-0.2-0.1-0.4-0.1-0.6,0.1c-0.2,0.3-0.7,0.8-0.8,1c-0.1,0.2-0.3,0.2-0.5,0.1c-0.7-0.3-1.4-0.7-2-1.2
		c-0.6-0.5-1-1.1-1.4-1.7c-0.1-0.3,0-0.4,0.1-0.5c0.1-0.1,0.3-0.3,0.4-0.4c0.1-0.1,0.2-0.3,0.3-0.4c0.1-0.1,0.1-0.3,0-0.4
		c-0.1-0.1-0.6-1.4-0.8-1.9c-0.2-0.5-0.4-0.4-0.6-0.4c-0.1,0-0.3,0-0.5,0c-0.3,0-0.5,0.1-0.7,0.3c-0.6,0.5-0.9,1.3-0.9,2.1
		c0.1,0.9,0.4,1.8,1,2.6c1.1,1.6,2.5,2.9,4.3,3.8c2.6,1,2.6,0.7,3,0.6c0.7-0.1,1.3-0.6,1.7-1.2C18.5,16,18.6,15.6,18.5,15.2
		L18.5,15.2z"/>
</g>
<g id="mail" class="st1">
</g>
<g id="Layer_3" class="st1">
	<g class="st5">
	</g>
</g>
</svg>
