<?xml version="1.0" encoding="utf-8"?>
<!-- Generator: Adobe Illustrator 22.1.0, SVG Export Plug-In . SVG Version: 6.00 Build 0)  -->
<svg version="1.1" xmlns="http://www.w3.org/2000/svg" xmlns:xlink="http://www.w3.org/1999/xlink" x="0px" y="0px"
	 viewBox="0 0 48 48" style="enable-background:new 0 0 48 48;" xml:space="preserve">
<style type="text/css">
	.st0{display:none;fill:#6BA539;}
	.st1{display:none;}
	.st2{display:inline;}
	.st3{fill:#6BA539;}
	.st4{display:inline;fill:none;stroke:#6BA539;stroke-width:1.6;stroke-miterlimit:10;}
	.st5{display:inline;fill:none;stroke:#6BA539;stroke-width:2;stroke-miterlimit:10;}
	.st6{fill:#FFFFFF;}
</style>
<g id="Layer_1">
	<path id="WhatsApp" class="st0" d="M34.5,23.7C34.4,29.4,29.8,34,24.1,34c-1.7,0-3.4-0.5-4.9-1.3l-5.7,1.8l1.9-5.5
		c-1-1.6-1.5-3.4-1.5-5.3C14,18,18.6,13.4,24.3,13.5C29.9,13.6,34.4,18.1,34.5,23.7z M24.2,15.1c-4.8,0-8.6,3.8-8.7,8.6
		c0,1.8,0.6,3.6,1.7,5.1L16.1,32l3.3-1.1c4,2.6,9.4,1.5,12-2.5c0.9-1.4,1.4-3,1.4-4.7C32.8,18.9,29,15.1,24.2,15.1L24.2,15.1z
		 M29.4,26.1c-0.1-0.1-0.2-0.2-0.5-0.3c-0.3-0.1-1.5-0.7-1.7-0.8c-0.2-0.1-0.4-0.1-0.6,0.1c-0.2,0.3-0.7,0.8-0.8,1
		c-0.1,0.2-0.3,0.2-0.5,0.1c-0.7-0.3-1.4-0.7-2-1.3c-0.6-0.5-1-1.1-1.4-1.7c-0.1-0.3,0-0.4,0.1-0.5c0.1-0.1,0.3-0.3,0.4-0.4
		c0.1-0.1,0.2-0.3,0.3-0.4c0.1-0.1,0.1-0.3,0-0.4c-0.1-0.1-0.6-1.4-0.8-1.9C21.6,19,21.4,19,21.2,19s-0.3,0-0.5,0
		c-0.3,0-0.5,0.1-0.7,0.3c-0.6,0.5-0.9,1.3-0.9,2.1c0.1,0.9,0.4,1.9,1,2.6c1.1,1.6,2.5,3,4.3,3.8c2.6,1,2.6,0.7,3,0.6
		c0.7-0.1,1.3-0.6,1.7-1.2C29.4,26.9,29.5,26.5,29.4,26.1z"/>
	<g id="mail_1_" class="st1">
		<g class="st2">
			<g>
				<path class="st3" d="M24,15.2c0.1,0,0.1,0,0.2,0l8.5,6c0.1,0.1,0.2,0.2,0.2,0.3v11c0,0.2-0.2,0.4-0.4,0.4h-17
					c-0.2,0-0.4-0.2-0.4-0.4v-11c0-0.1,0.1-0.3,0.2-0.3l8.5-6C23.9,15.2,23.9,15.2,24,15.2 M24,13.6c-0.4,0-0.8,0.1-1.1,0.3l-8.5,6
					c-0.5,0.4-0.9,1-0.9,1.6v11c0,1.1,0.9,2,2,2h17c1.1,0,2-0.9,2-2v-11c0-0.7-0.3-1.3-0.9-1.6l-8.5-6C24.8,13.7,24.4,13.6,24,13.6
					L24,13.6z"/>
			</g>
		</g>
		<path class="st4" d="M14.4,21.3l8.3,6.5c0.7,0.6,1.7,0.6,2.5,0l8.4-6.6"/>
		<line class="st4" x1="21.2" y1="26.8" x2="14.4" y2="33.6"/>
		<line class="st4" x1="26.8" y1="26.8" x2="33.6" y2="33.6"/>
	</g>
	<g id="phone_1_" class="st1">
		<path id="phone" class="st4" d="M31.7,31.5l-0.3,0.2c-1.6,1.1-3.6,1.1-5.2,0l0,0c-3.9-2.7-7.3-6-9.9-9.9l0,0
			c-1.1-1.6-1.1-3.7,0-5.2l0.2-0.3c0.6-0.9,1.9-1,2.7-0.2l1.9,1.9c0.5,0.5,0.7,1.3,0.4,2l-0.3,0.8c-0.3,0.7-0.2,1.5,0.4,2l3.8,3.8
			c0.5,0.5,1.3,0.7,2,0.4l0.8-0.3c0.7-0.3,1.5-0.2,2,0.4l1.9,1.9C32.7,29.6,32.6,30.9,31.7,31.5z"/>
	</g>
	<g id="hamburger" class="st1">
		<line class="st5" x1="13.5" y1="17" x2="34.5" y2="17"/>
		<line class="st5" x1="13.5" y1="31" x2="34.5" y2="31"/>
		<line class="st5" x1="13.5" y1="24" x2="34.5" y2="24"/>
	</g>
	<g class="st1">
		<g class="st2">
			<g>
				<path class="st3" d="M24,16.4l6.9,7.7h-1.1v1.6v7.1h-2.6v-4.8v-1.6h-1.6h-3.1h-1.6v1.6v4.8h-2.6v-7.1v-1.6h-1.1L24,16.4 M24,14
					L13.5,25.8h3.1v8.7h5.8v-6.4h3.1v6.4h5.8v-8.7h3.1L24,14L24,14z"/>
			</g>
		</g>
	</g>
	<g id="scales_1_">
		<g>
			<g>
				<path class="st6" d="M13.8,23.5c0.1,0,0.3-0.1,0.4-0.1c0,0,0.1,0,0.1,0c0,0,0,0,0-0.1c0,0,0-0.1,0-0.1c0-0.3,0-0.5,0-0.8
					c0-0.4,0-0.7,0-1.1c0-0.3,0-0.7,0-1c0-0.1,0-0.2,0-0.3c0,0,0-0.1,0-0.1c0,0,0,0,0-0.1c0,0,0,0,0,0c-0.1,0.3-0.2,0.6-0.3,0.9
					c-0.2,0.7-0.4,1.3-0.4,2c0,0.3-0.1,0.6-0.1,0.9C13.6,23.6,13.7,23.5,13.8,23.5z"/>
				<path class="st6" d="M15.9,23c0.1,0,0.3,0,0.4-0.1c0,0,0.1,0,0.1,0c0,0,0-0.1,0-0.1c0-0.1,0-0.3,0-0.4c0-0.2,0-0.4,0-0.6
					c0-0.3,0-0.5,0-0.8c0-0.3,0-0.6,0-0.9c0-0.3,0-0.6,0-0.9c0-0.3,0-0.6,0-0.9c0-0.3,0-0.5,0-0.8c0-0.2,0-0.4,0-0.5
					c0-0.1,0-0.1,0-0.2c0,0,0-0.1,0-0.1c0,0,0,0,0,0c-0.3,0.3-0.5,0.6-0.8,0.9c0,0-0.1,0.1-0.1,0.1c0,0,0,0,0,0c0,0,0,0,0,0
					c0,0,0,0.1,0,0.1c0,0.1,0,0.3,0,0.4c0,0.2,0,0.4,0,0.7c0,0.3,0,0.5,0,0.8c0,0.3,0,0.6,0,0.9c0,0.3,0,0.6,0,0.8
					c0,0.2,0,0.5,0,0.7c0,0.2,0,0.4,0,0.5c0,0.1,0,0.1,0,0.2c0,0,0,0.1,0,0.1c0,0,0,0,0,0C15.6,23.1,15.8,23,15.9,23z"/>
				<path class="st6" d="M18.1,22.9c0.1,0,0.2,0,0.3,0c0-0.1,0-0.1,0-0.2c0-0.2,0-0.4,0-0.6c0-0.3,0-0.6,0-0.8c0-0.3,0-0.7,0-1
					c0-0.4,0-0.7,0-1.1c0-0.4,0-0.7,0-1.1c0-0.3,0-0.7,0-1c0-0.3,0-0.6,0-0.9c0-0.2,0-0.4,0-0.6c0-0.1,0-0.1,0-0.2c0,0,0-0.1,0-0.1
					c0,0,0,0,0,0c-0.2,0.1-0.4,0.3-0.6,0.4c-0.1,0.1-0.1,0.1-0.2,0.2c0,0-0.1,0-0.1,0.1c0,0,0,0,0,0c0,0.1,0,0.2,0,0.3
					c0,0.2,0,0.5,0,0.7c0,0.3,0,0.6,0,0.9c0,0.4,0,0.7,0,1.1c0,0.4,0,0.7,0,1.1c0,0.4,0,0.7,0,1.1c0,0.3,0,0.6,0,0.9
					c0,0.2,0,0.4,0,0.7c0,0.1,0,0.1,0,0.2c0,0,0,0.1,0,0.1c0,0,0,0,0,0C17.7,22.9,17.9,22.9,18.1,22.9z"/>
				<path class="st6" d="M20.3,23c0,0,0.1,0,0.1,0c0-0.1,0-0.2,0-0.2c0-0.2,0-0.4,0-0.6c0-0.3,0-0.6,0-1c0-0.4,0-0.8,0-1.2
					c0-0.4,0-0.9,0-1.3c0-0.4,0-0.9,0-1.3c0-0.4,0-0.8,0-1.2c0-0.3,0-0.7,0-1c0-0.2,0-0.5,0-0.7c0-0.1,0-0.2,0-0.2c0,0,0-0.1,0-0.1
					c0,0,0,0,0,0c-0.3,0.1-0.6,0.2-0.8,0.3c0,0,0,0,0,0c0,0,0,0,0,0c0,0.2,0,0.3,0,0.5c0,0.3,0,0.6,0,0.9c0,0.4,0,0.8,0,1.2
					c0,0.4,0,0.9,0,1.3c0,0.4,0,0.9,0,1.3c0,0.4,0,0.8,0,1.2c0,0.3,0,0.7,0,1c0,0.2,0,0.5,0,0.7c0,0.1,0,0.1,0,0.2c0,0,0,0,0,0
					c0,0,0.1,0,0.1,0C19.8,23,20.1,23,20.3,23z"/>
				<path class="st6" d="M26.7,33.4c-0.2-0.4-0.4-0.9-0.7-1.3c-0.3-0.4-0.6-0.8-0.9-1.1c-0.3-0.3-0.6-0.7-1-1
					c-0.3-0.3-0.7-0.5-1.1-0.8c-0.4-0.2-0.8-0.4-1.2-0.6c-0.4-0.2-0.8-0.3-1.3-0.4c-0.4-0.1-0.9-0.2-1.3-0.3
					c-0.5-0.1-0.9-0.1-1.4-0.1c-0.5,0-1.1,0.1-1.6,0.2c-0.5,0.1-1,0.3-1.5,0.4c-0.1,0-0.1,0-0.2,0.1c0.1,0.2,0.2,0.4,0.3,0.6
					c0,0,0,0.1,0.1,0.1c0,0,0,0,0,0c0,0,0,0,0,0c0.1,0,0.2-0.1,0.4-0.1c0.6-0.2,1.2-0.3,1.9-0.4c0.5-0.1,1.1-0.1,1.7,0
					c0.5,0,1,0.1,1.4,0.3c0.5,0.1,0.9,0.3,1.3,0.5c0.4,0.2,0.8,0.4,1.2,0.7c0.4,0.3,0.8,0.6,1.1,0.9c0.3,0.3,0.7,0.7,1,1.1
					c0.3,0.4,0.5,0.8,0.8,1.2c0.1,0.2,0.2,0.5,0.3,0.8c0,0,0,0,0,0c0,0,0,0,0,0c0,0,0.1,0,0.1,0c0.2,0,0.3-0.1,0.5-0.1
					c0.1,0,0.2,0,0.2-0.1C26.9,33.8,26.8,33.6,26.7,33.4z"/>
				<path class="st6" d="M24.6,33.7c-0.3-0.6-0.7-1.1-1.2-1.6c-0.5-0.5-1-0.9-1.5-1.2c-0.6-0.3-1.2-0.6-1.8-0.8
					c-0.6-0.2-1.3-0.3-2-0.3c-0.8,0-1.7,0.1-2.4,0.4c0,0-0.1,0-0.1,0c0.4,0.6,0.9,1.1,1.4,1.5c0.5,0.5,1.1,0.9,1.7,1.3
					c0.6,0.4,1.3,0.7,1.9,0.9c0.7,0.2,1.4,0.4,2.1,0.5c0.7,0.1,1.4,0.1,2.2,0c0,0,0.1,0,0.1,0C24.9,34.2,24.8,33.9,24.6,33.7z
					 M17.7,30.7c0.5,0,0.9,0,1.4,0.1c0.4,0.1,0.8,0.2,1.3,0.3c0.4,0.1,0.8,0.3,1.2,0.6c0.4,0.2,0.7,0.5,1,0.8
					c0.2,0.1,0.3,0.3,0.5,0.5c0.1,0.1,0.1,0.2,0.2,0.2c0.1,0.1,0.1,0.2,0.1,0.3c0,0.1-0.1,0.2-0.2,0.2c-0.1,0-0.1,0-0.2,0
					c-0.1,0-0.1,0-0.2,0c-0.2,0-0.5-0.1-0.7-0.1c-0.5-0.1-0.9-0.2-1.3-0.4c-0.4-0.2-0.9-0.3-1.3-0.6c-0.4-0.2-0.8-0.5-1.2-0.7
					c-0.2-0.1-0.4-0.3-0.6-0.4c-0.1-0.1-0.2-0.1-0.3-0.2c-0.1-0.1-0.1-0.2,0-0.3C17.5,30.8,17.6,30.7,17.7,30.7z"/>
				<path class="st6" d="M34,24.7c-0.6-0.2-1.3-0.4-1.9-0.5c-0.7-0.1-1.5-0.2-2.3-0.2c-0.8,0-1.5,0.1-2.3,0.2
					c-0.7,0.1-1.5,0.3-2.2,0.6c-0.4,0.1-0.7,0.3-1,0.4c-0.2,0.1-0.3,0.1-0.5,0.1c-0.1,0-0.1-0.1-0.2-0.1c-0.1,0-0.2-0.1-0.3-0.1
					c-0.7-0.3-1.4-0.5-2.1-0.7c-0.7-0.2-1.5-0.3-2.3-0.3c-0.7-0.1-1.5,0-2.2,0c-0.7,0.1-1.5,0.2-2.2,0.4c-0.3,0.1-0.5,0.2-0.8,0.3
					c-0.1,0-0.1,0-0.2,0.1c0,0,0,0,0,0c0,0,0,0,0,0.1c0,0.2,0,0.4,0.1,0.5c0,0.1,0,0.2,0,0.3c0.6-0.2,1.2-0.4,1.8-0.5
					c0.7-0.2,1.4-0.2,2.1-0.3c0.7,0,1.4,0,2.1,0.1c0.7,0.1,1.4,0.2,2.1,0.4c0.7,0.2,1.3,0.5,1.9,0.8c0.5,0.3,1.1,0.6,1.6,0.9
					c0.5,0.3,0.9,0.7,1.3,1.1c0.4,0.4,0.8,0.8,1.2,1.3c0.4,0.4,0.7,0.9,1,1.4c0.3,0.5,0.6,1.1,0.8,1.6c0,0.1,0.1,0.2,0.1,0.2
					c0.1-0.1,0.2-0.2,0.3-0.2c0.1-0.1,0.2-0.1,0.3-0.2c0,0,0.1,0,0.1-0.1c0,0,0.1,0,0.1,0c0,0,0,0,0-0.1c0,0,0-0.1,0-0.1
					c0-0.1-0.1-0.2-0.1-0.3c-0.1-0.2-0.2-0.4-0.3-0.6c0,0,0-0.1-0.1-0.1c0,0-0.1-0.1-0.1-0.1c0-0.1,0-0.2,0.1-0.2c0.1,0,0.2,0,0.3,0
					c0.1,0,0.2,0,0.3,0c0.5,0,0.9,0.1,1.3,0.2c0,0,0,0,0.1,0c0,0,0,0,0,0c0.1-0.1,0.2-0.2,0.3-0.3c0.1-0.1,0.2-0.3,0.3-0.4
					c-0.6-0.2-1.2-0.3-1.8-0.4c-0.4,0-0.7,0-1.1,0c-0.1,0-0.2,0-0.3,0c0,0-0.1,0-0.1,0c0,0,0,0,0,0c0,0,0,0,0,0c0,0,0,0,0-0.1
					c-0.1-0.1-0.2-0.3-0.3-0.4c-0.1-0.1-0.1-0.1-0.2-0.2c0-0.1,0-0.1,0-0.2c0-0.1,0.1-0.1,0.1-0.1c0.1,0,0.2,0,0.3,0
					c0.4,0,0.7-0.1,1.1-0.1c0.7,0,1.4,0.1,2.1,0.3c0.2,0,0.3,0.1,0.5,0.2c0.1,0,0.2,0.1,0.3,0.1c0,0,0.1,0,0.1,0.1c0,0,0,0,0,0
					c0,0,0,0,0-0.1c0-0.1,0.1-0.1,0.1-0.2c0.1-0.1,0.2-0.3,0.2-0.4c0,0,0-0.1,0-0.1c-0.8-0.3-1.7-0.5-2.5-0.6
					c-1-0.1-1.9-0.1-2.9,0.1c-0.1,0-0.2,0-0.3,0.1c0,0-0.1,0-0.1,0c0,0,0,0-0.1-0.1c0,0-0.1-0.1-0.1-0.1c-0.1-0.1-0.2-0.2-0.3-0.3
					c-0.1-0.1-0.2-0.1-0.2-0.2c0-0.1,0-0.2,0.1-0.2c0,0,0.1,0,0.1,0c0.1,0,0.1,0,0.2,0c0.2-0.1,0.5-0.1,0.7-0.1
					c0.9-0.2,1.9-0.2,2.8-0.1c0.9,0.1,1.9,0.3,2.8,0.7c0,0,0.1,0,0.1,0.1c0.1-0.2,0.2-0.5,0.2-0.7c0,0,0-0.1,0-0.1c0,0-0.1,0-0.1,0
					c-0.1-0.1-0.3-0.1-0.4-0.2c-0.6-0.2-1.3-0.4-1.9-0.5C31,26,30.3,26,29.6,26c-0.7,0-1.3,0.1-2,0.2c-0.3,0.1-0.7,0.1-1,0.2
					c-0.2,0-0.3,0.1-0.5,0.2c0,0-0.1,0-0.1,0c0,0-0.1,0-0.1,0c0,0,0,0-0.1,0c0,0,0,0,0,0c0,0-0.1-0.1-0.1-0.1
					c-0.1-0.1-0.3-0.2-0.4-0.3c-0.1,0-0.1-0.1-0.1-0.1c0-0.1,0-0.1,0-0.2c0-0.1,0.1-0.1,0.2-0.1c0.1,0,0.2-0.1,0.2-0.1
					c0.2-0.1,0.3-0.1,0.5-0.2c0.7-0.2,1.3-0.4,2-0.5c0.7-0.1,1.4-0.1,2-0.1c0.7,0,1.4,0.1,2,0.2c0.6,0.1,1.3,0.3,1.9,0.5
					c0.1,0,0.2,0.1,0.2,0.1c0-0.2,0.1-0.5,0.1-0.8c0,0,0-0.1,0-0.1c0,0,0,0,0,0c0,0,0,0-0.1,0C34.2,24.8,34.1,24.8,34,24.7z"/>
				<g>
					<path class="st6" d="M14,27.3c0,0,0,0.1,0,0.1c0,0.1,0.1,0.2,0.1,0.3c0,0,0,0,0,0C14.1,27.5,14.1,27.4,14,27.3
						C14,27.2,14,27.3,14,27.3z"/>
					<path class="st6" d="M27.9,33.8c0.2-0.1,0.4-0.2,0.6-0.3c0,0,0.1,0,0.1-0.1c0,0,0.1,0,0.1,0c0,0,0,0,0,0
						C28.4,33.5,28.2,33.6,27.9,33.8C27.9,33.7,27.9,33.7,27.9,33.8z"/>
					<path class="st6" d="M14,27.2C14,27.2,14,27.2,14,27.2C14,27.2,14,27.2,14,27.2z"/>
					<path class="st6" d="M28.6,33.2c-0.1-0.2-0.1-0.3-0.2-0.4c-0.2-0.6-0.5-1.1-0.9-1.6c-0.3-0.5-0.7-1-1.1-1.4
						c-0.4-0.4-0.8-0.9-1.3-1.2c-0.5-0.4-0.9-0.7-1.5-1c-0.5-0.3-1-0.5-1.6-0.7c-0.6-0.2-1.3-0.4-1.9-0.5c-0.7-0.1-1.3-0.2-2-0.2
						c-0.7,0-1.3,0.1-2,0.2c-0.7,0.1-1.3,0.3-1.9,0.5c-0.1,0-0.2,0.1-0.2,0.1c0,0-0.1,0-0.1,0c0,0.1,0.1,0.2,0.1,0.4c0,0,0,0,0,0.1
						c0,0.1,0.1,0.3,0.1,0.4c0.6-0.2,1.1-0.4,1.7-0.5c0.7-0.1,1.3-0.2,2-0.2c0.6,0,1.2,0,1.9,0.1c0.5,0.1,1,0.2,1.5,0.4
						c0.5,0.2,1,0.3,1.4,0.6c0.5,0.2,0.9,0.5,1.3,0.8c0.4,0.3,0.8,0.6,1.2,0.9c0.4,0.3,0.7,0.7,1,1.1c0.3,0.4,0.6,0.8,0.9,1.3
						c0.3,0.5,0.5,1,0.7,1.5c0,0.1,0.1,0.2,0.1,0.3c0.3-0.1,0.5-0.2,0.8-0.4c0,0,0-0.1,0-0.1C28.7,33.3,28.6,33.2,28.6,33.2z"/>
				</g>
				<path class="st6" d="M23.5,23.9c0.1,0.1,0.2,0.1,0.3,0.2c0.2,0.1,0.4,0.1,0.6,0c0.1-0.1,0.2-0.1,0.3-0.2
					c0.1-0.1,0.3-0.2,0.4-0.4c0.5-0.5,0.9-1.1,1.2-1.7c0.3-0.7,0.4-1.4,0.4-2.1c0-0.7-0.2-1.5-0.5-2.1c-0.3-0.7-0.8-1.2-1.4-1.7
					c-0.1-0.1-0.2-0.1-0.2-0.2c-0.1-0.1-0.3-0.1-0.4-0.1c-0.1,0-0.2,0.1-0.4,0.2c-0.1,0.1-0.2,0.2-0.3,0.2c-0.6,0.5-1,1-1.3,1.7
					c-0.3,0.6-0.5,1.4-0.5,2.1c0,0.7,0.1,1.4,0.4,2.1c0.3,0.7,0.7,1.3,1.2,1.7C23.2,23.7,23.3,23.8,23.5,23.9z M25.7,19.9
					c0,0.5-0.1,1-0.3,1.5c-0.2,0.5-0.5,0.9-0.8,1.3c-0.1,0.1-0.2,0.2-0.3,0.3c0,0-0.1,0.1-0.2,0.1c0,0-0.1,0-0.1,0.1c0,0,0,0,0,0
					c0,0,0,0,0,0c-0.2-0.2-0.4-0.3-0.6-0.5c-0.3-0.4-0.6-0.8-0.8-1.3c-0.2-0.5-0.3-1-0.3-1.5c0-0.5,0.1-1,0.3-1.5
					c0.2-0.5,0.4-0.9,0.8-1.3c0.2-0.2,0.3-0.4,0.5-0.5c0,0,0,0,0.1-0.1c0,0,0,0,0,0c0,0,0,0,0,0c0,0,0,0,0,0c0.1,0,0.1,0.1,0.2,0.1
					c0.1,0.1,0.2,0.2,0.3,0.3c0.4,0.4,0.6,0.8,0.8,1.2c0.2,0.5,0.3,0.9,0.4,1.4C25.7,19.7,25.7,19.8,25.7,19.9z"/>
				<path class="st6" d="M28.4,22.9C28.4,22.9,28.5,22.9,28.4,22.9C28.5,22.9,28.5,22.9,28.4,22.9c0.1-0.1,0.1-0.2,0.1-0.2
					c0-0.2,0-0.4,0-0.7c0-0.3,0-0.7,0-1c0-0.4,0-0.8,0-1.2c0-0.4,0-0.9,0-1.3c0-0.4,0-0.9,0-1.3c0-0.4,0-0.8,0-1.2
					c0-0.3,0-0.6,0-0.9c0-0.2,0-0.4,0-0.6c0,0,0-0.1,0-0.1c0,0,0,0-0.1,0c-0.2-0.1-0.3-0.2-0.5-0.2c-0.1,0-0.2-0.1-0.3-0.1
					c0,0.1,0,0.2,0,0.2c0,0.2,0,0.4,0,0.6c0,0.3,0,0.6,0,1c0,0.4,0,0.8,0,1.2c0,0.4,0,0.9,0,1.3c0,0.4,0,0.9,0,1.3
					c0,0.4,0,0.8,0,1.2c0,0.3,0,0.7,0,1c0,0.2,0,0.5,0,0.7c0,0.1,0,0.2,0,0.2c0,0,0,0.1,0,0.1c0,0,0,0,0,0
					C27.9,23,28.1,23,28.4,22.9z"/>
				<path class="st6" d="M22,15.7c0.3-0.3,0.4-0.7,0.4-1.1c0-0.2,0-0.5,0-0.7c0-0.1,0-0.2,0-0.3c-0.2,0-0.4,0.1-0.6,0.1
					c-0.1,0-0.2,0-0.3,0.1c0,0,0,0,0,0c0,0.1,0,0.1,0,0.2c0,0.1,0,0.2,0,0.3c0,0.3,0,0.5,0,0.8c0,0.3,0,0.5,0,0.8c0,0.1,0,0.2,0,0.3
					c0,0,0,0.1,0,0.1c0,0,0,0,0,0c0,0,0,0,0,0C21.7,16.1,21.8,15.9,22,15.7z"/>
				<path class="st6" d="M24.3,14.3c0.1,0,0.1,0.1,0.2,0.1c0-0.1,0-0.3,0-0.4c0-0.1,0-0.2,0-0.3c0,0,0-0.1,0-0.1c0,0,0,0,0,0
					c0,0-0.1,0-0.1,0c-0.1,0-0.2,0-0.3,0c-0.2,0-0.3,0-0.5,0c0,0,0,0,0,0c0,0,0,0.1,0,0.1c0,0.1,0,0.2,0,0.3c0,0.2,0,0.4,0,0.5
					c0.1-0.1,0.1-0.1,0.2-0.1C23.9,14.2,24.1,14.2,24.3,14.3z"/>
				<path class="st6" d="M26.3,16c0.1,0.1,0.1,0.2,0.2,0.2c0-0.1,0-0.2,0-0.3c0-0.3,0-0.5,0-0.8c0-0.3,0-0.5,0-0.8
					c0-0.2,0-0.3,0-0.5c0,0,0,0,0,0c0,0,0,0,0,0c0,0-0.1,0-0.1,0c-0.2-0.1-0.4-0.1-0.7-0.1c0,0,0,0-0.1,0c0,0.2,0,0.5,0,0.7
					c0,0.1,0,0.2,0,0.3c0,0.2,0,0.4,0.1,0.6c0.1,0.1,0.1,0.3,0.2,0.4C26,15.8,26.2,15.9,26.3,16z"/>
				<path class="st6" d="M29.9,22.9c0.2,0,0.4,0,0.6,0c0-0.1,0-0.1,0-0.2c0-0.2,0-0.4,0-0.6c0-0.3,0-0.6,0-0.9c0-0.3,0-0.7,0-1
					c0-0.4,0-0.7,0-1.1c0-0.4,0-0.7,0-1.1c0-0.3,0-0.6,0-1c0-0.2,0-0.5,0-0.7c0-0.1,0-0.3,0-0.4c0,0,0,0,0-0.1c0,0-0.1-0.1-0.1-0.1
					c-0.1-0.1-0.1-0.1-0.2-0.2c-0.1-0.1-0.3-0.2-0.4-0.3c-0.1,0-0.1-0.1-0.2-0.1c0,0.1,0,0.1,0,0.2c0,0.2,0,0.4,0,0.6
					c0,0.3,0,0.6,0,0.8c0,0.3,0,0.7,0,1c0,0.4,0,0.7,0,1.1c0,0.4,0,0.7,0,1.1c0,0.3,0,0.7,0,1c0,0.3,0,0.6,0,0.9c0,0.2,0,0.4,0,0.6
					c0,0.1,0,0.1,0,0.2c0,0,0,0.1,0,0.1c0,0,0,0,0,0C29.7,22.9,29.8,22.9,29.9,22.9z"/>
				<path class="st6" d="M32.1,23c0.1,0,0.3,0,0.4,0.1c0-0.1,0-0.1,0-0.2c0-0.2,0-0.3,0-0.5c0-0.2,0-0.5,0-0.7c0-0.3,0-0.5,0-0.8
					c0-0.3,0-0.6,0-0.9c0-0.3,0-0.6,0-0.8c0-0.2,0-0.5,0-0.7c0-0.2,0-0.3,0-0.5c0,0,0-0.1,0-0.1c0,0,0,0,0-0.1c0,0,0,0,0,0
					c0-0.1-0.1-0.1-0.1-0.2c-0.1-0.1-0.2-0.2-0.3-0.3c-0.1-0.2-0.3-0.3-0.4-0.4c0,0-0.1-0.1-0.1-0.1c0,0.1,0,0.1,0,0.2
					c0,0.2,0,0.3,0,0.5c0,0.2,0,0.5,0,0.7c0,0.3,0,0.6,0,0.9c0,0.3,0,0.6,0,0.9c0,0.3,0,0.6,0,0.9c0,0.3,0,0.6,0,0.8
					c0,0.2,0,0.5,0,0.7c0,0.1,0,0.3,0,0.4c0,0,0,0.1,0,0.1c0,0,0,0,0,0c0,0,0.1,0,0.1,0C31.9,23,32,23,32.1,23z"/>
				<path class="st6" d="M34.1,23.5c0.1,0,0.2,0.1,0.4,0.1c0-0.6-0.1-1.2-0.2-1.8c-0.1-0.5-0.3-1.1-0.5-1.6
					c-0.1-0.1-0.1-0.3-0.2-0.4c0,0.1,0,0.3,0,0.4c0,0.3,0,0.6,0,0.9c0,0.4,0,0.7,0,1.1c0,0.3,0,0.6,0,0.9c0,0.1,0,0.1,0,0.2
					c0,0,0,0,0,0c0,0,0,0,0.1,0c0.1,0,0.1,0,0.2,0.1C34,23.4,34,23.5,34.1,23.5z"/>
			</g>
		</g>
	</g>
</g>
<g id="mail" class="st1">
</g>
<g id="Layer_3">
	<g>
	</g>
</g>
</svg>
