<?xml version="1.0" encoding="utf-8"?>
<!-- Generator: Adobe Illustrator 22.1.0, SVG Export Plug-In . SVG Version: 6.00 Build 0)  -->
<svg version="1.1" xmlns="http://www.w3.org/2000/svg" xmlns:xlink="http://www.w3.org/1999/xlink" x="0px" y="0px"
	 viewBox="0 0 21 21" style="enable-background:new 0 0 21 21;" xml:space="preserve">
<style type="text/css">
	.st0{display:none;fill:#FFFFFF;}
	.st1{fill:#FFFFFF;}
	.st2{fill:none;stroke:#FFFFFF;stroke-width:1.6;stroke-miterlimit:10;}
	.st3{display:none;}
	.st4{display:inline;fill:none;stroke:#FFFFFF;stroke-width:1.6;stroke-miterlimit:10;}
	.st5{display:inline;fill:none;stroke:#6BA539;stroke-width:2;stroke-miterlimit:10;}
	.st6{display:inline;}
</style>
<g id="Layer_1">
	<path id="WhatsApp" class="st0" d="M21,10.2c-0.1,5.7-4.7,10.3-10.4,10.3c-1.7,0-3.4-0.5-4.9-1.3L0,21l1.9-5.5
		c-1-1.6-1.5-3.4-1.5-5.3C0.5,4.5,5.1-0.1,10.8,0C16.4,0.1,20.9,4.6,21,10.2z M10.7,1.6C5.9,1.6,2,5.4,2,10.2c0,1.8,0.6,3.6,1.7,5.1
		l-1.1,3.2l3.3-1.1c4,2.6,9.4,1.5,12-2.5c0.9-1.4,1.4-3,1.4-4.7C19.3,5.4,15.5,1.6,10.7,1.6L10.7,1.6z M15.9,12.6
		c-0.1-0.1-0.2-0.2-0.5-0.3c-0.3-0.1-1.5-0.7-1.7-0.8c-0.2-0.1-0.4-0.1-0.6,0.1s-0.7,0.8-0.8,1s-0.3,0.2-0.5,0.1
		c-0.7-0.3-1.4-0.7-2-1.3c-0.6-0.5-1-1.1-1.4-1.7c-0.1-0.3,0-0.4,0.1-0.5s0.3-0.3,0.4-0.4C8.9,8.6,9,8.4,9.1,8.3
		c0.1-0.1,0.1-0.3,0-0.4C9,7.7,8.5,6.5,8.3,6S7.9,5.5,7.7,5.5s-0.3,0-0.5,0C7,5.5,6.7,5.6,6.5,5.8C6,6.4,5.6,7.1,5.7,7.9
		c0.1,0.9,0.4,1.9,1,2.6c1.1,1.6,2.5,3,4.3,3.8c2.6,1,2.6,0.7,3,0.6c0.7-0.1,1.3-0.6,1.7-1.2C15.9,13.4,16,13,15.9,12.6z"/>
	<g id="mail_1_">
		<g>
			<g>
				<path class="st1" d="M10.5,1.7c0.1,0,0.1,0,0.2,0l8.5,6c0.1,0.1,0.2,0.2,0.2,0.3v11c0,0.2-0.2,0.4-0.4,0.4H2
					c-0.2,0-0.4-0.2-0.4-0.4V8c0-0.1,0.1-0.3,0.2-0.3l8.5-6C10.4,1.7,10.4,1.7,10.5,1.7 M10.5,0.1c-0.4,0-0.8,0.1-1.1,0.3l-8.5,6
					C0.3,6.8,0,7.4,0,8v11c0,1.1,0.9,2,2,2h17c1.1,0,2-0.9,2-2V8c0-0.7-0.3-1.3-0.9-1.6l-8.5-6C11.3,0.2,10.9,0.1,10.5,0.1L10.5,0.1
					z"/>
			</g>
		</g>
		<path class="st2" d="M0.9,7.8l8.3,6.5c0.7,0.6,1.7,0.6,2.5,0l8.4-6.6"/>
		<line class="st2" x1="7.7" y1="13.3" x2="0.9" y2="20.1"/>
		<line class="st2" x1="13.3" y1="13.3" x2="20.1" y2="20.1"/>
	</g>
	<g id="phone_1_" class="st3">
		<path id="phone" class="st4" d="M18.2,18l-0.3,0.2c-1.6,1.1-3.6,1.1-5.2,0l0,0c-3.9-2.7-7.3-6-9.9-9.9l0,0c-1.1-1.6-1.1-3.7,0-5.2
			L3,2.8c0.6-0.9,1.9-1,2.7-0.2l1.9,1.9c0.5,0.5,0.7,1.3,0.4,2L7.6,7.3C7.3,7.9,7.4,8.7,8,9.2l3.8,3.8c0.5,0.5,1.3,0.7,2,0.4
			l0.8-0.3c0.7-0.3,1.5-0.2,2,0.4l1.9,1.9C19.2,16.1,19.1,17.4,18.2,18z"/>
	</g>
	<g id="hamburger" class="st3">
		<line class="st5" x1="0" y1="3.5" x2="21" y2="3.5"/>
		<line class="st5" x1="0" y1="17.5" x2="21" y2="17.5"/>
		<line class="st5" x1="0" y1="10.5" x2="21" y2="10.5"/>
	</g>
	<g class="st3">
		<g class="st6">
			<g>
				<path class="st1" d="M10.5,2.9l6.9,7.7h-1.1v1.6v7.1h-2.6v-4.8V13h-1.6H8.9H7.3v1.6v4.8H4.7v-7.1v-1.6H3.6L10.5,2.9 M10.5,0.5
					L0,12.3h3.1V21h5.8v-6.4h3.1V21h5.8v-8.7H21L10.5,0.5L10.5,0.5z"/>
			</g>
		</g>
	</g>
</g>
<g id="mail" class="st3">
</g>
<g id="Layer_3">
	<g>
	</g>
</g>
</svg>
