<?xml version="1.0" encoding="utf-8"?>
<!-- Generator: Adobe Illustrator 22.1.0, SVG Export Plug-In . SVG Version: 6.00 Build 0)  -->
<svg version="1.1" xmlns="http://www.w3.org/2000/svg" xmlns:xlink="http://www.w3.org/1999/xlink" x="0px" y="0px"
	 viewBox="0 0 21 21" style="enable-background:new 0 0 21 21;" xml:space="preserve">
<style type="text/css">
	.st0{fill:none;}
	.st1{display:none;}
	.st2{display:inline;fill:#319B42;}
	.st3{display:inline;fill:none;stroke:#319B42;stroke-width:2;stroke-miterlimit:10;}
	.st4{display:inline;}
	.st5{fill:#31A149;}
	.st6{fill:none;stroke:#D64545;stroke-width:2;stroke-miterlimit:10;}
	.st7{fill:#FFFFFF;}
</style>
<g id="Layer_1">
	<rect x="0" y="0" class="st0" width="21" height="21"/>
	<g id="phone_1_" class="st1">
		<path id="phone" class="st2" d="M17.9,17.7L17.5,18c-1.5,1-3.5,1.1-5,0l0,0c-3.8-2.6-7-5.8-9.5-9.5l0,0c-1-1.5-1-3.5,0-5l0.3-0.4
			c0.6-0.8,1.8-0.9,2.5-0.2l1.9,1.9C8.2,5.3,8.3,6,8,6.6L7.3,8.1C7.2,8.3,7.3,8.6,7.4,8.8l0,0c1.3,1.9,2.9,3.5,4.8,4.8l0,0
			c0.2,0.1,0.5,0.2,0.7,0.1l1.5-0.7c0.6-0.3,1.4-0.2,1.9,0.3l1.9,1.9C18.8,15.9,18.7,17.2,17.9,17.7z"/>
	</g>
	<g id="hamburger" class="st1">
		<line class="st3" x1="0" y1="3.5" x2="21" y2="3.5"/>
		<line class="st3" x1="0" y1="17.5" x2="21" y2="17.5"/>
		<line class="st3" x1="0" y1="10.5" x2="21" y2="10.5"/>
	</g>
	<g class="st1">
		<path class="st2" d="M8.5,11.6L0,6.5v9.9c0,1.2,1,2.1,2.1,2.1h16.7c1.2,0,2.1-1,2.1-2.1V6.5l-8.5,5.2C11.3,12.4,9.7,12.4,8.5,11.6
			z"/>
		<path class="st2" d="M21,3.7L21,3.7c0-0.7-0.5-1.2-1.2-1.2H1.2C0.5,2.5,0,3,0,3.7v0c0,0.2,0.1,0.4,0.3,0.5l9.2,5.6
			c0.6,0.4,1.4,0.4,2.1,0l9.2-5.6C20.9,4.1,21,3.9,21,3.7z"/>
	</g>
	<g id="arrow" class="st1">
		<polyline class="st3" points="14,3.5 7,10.5 14,17.5 		"/>
	</g>
	<g class="st1">
		<path class="st2" d="M23.6,4.8c-0.1-2-0.5-4-1.3-5.9c0-0.1-0.1-0.2-0.1-0.3c0,0,0-0.1,0-0.1c-0.1-0.1,0,0-0.1,0
			c-0.1,0-0.1,0-0.2,0.1c-0.2,0.1-0.5,0.2-0.7,0.2c-0.5,0.2-0.9,0.4-1.4,0.6c-0.8,0.4-1.6,0.8-2.4,1.3c-1.4,0.9-2.7,2.1-3.8,3.4
			c-1.2,1.4-2.1,3-2.8,4.7c-0.7,1.8-1.2,3.8-1.3,5.8c-0.1,2,0.1,4,0.7,6c0.1,0.5,0.3,0.9,0.5,1.4c0,0.1,0.1,0.2,0.1,0.3
			c0,0.1,0,0.1,0.1,0.2c0,0,0,0.1,0,0.1c0,0,0.1,0,0.1,0c0.2-0.1,0.5-0.2,0.7-0.2c0.9-0.3,1.8-0.7,2.7-1.2c1.8-1,3.3-2.3,4.7-3.8
			c1.3-1.5,2.4-3.2,3.1-5c0.8-1.9,1.2-3.8,1.3-5.8C23.6,5.9,23.6,5.4,23.6,4.8z"/>
		<path class="st2" d="M8.1,8.8c0.2-0.6,0.5-1.3,0.8-1.9c0-0.1,0.1-0.1,0.1-0.2c0,0,0-0.1,0.1-0.1c0-0.1,0,0,0-0.1
			c0-0.1-0.1-0.1-0.1-0.2c0-0.1-0.1-0.2-0.1-0.2C8.6,5.8,8.4,5.5,8.2,5.2c-0.8-1.1-1.6-2-2.6-2.9c-1-0.9-2.2-1.7-3.4-2.4
			C1.6-0.4,0.9-0.7,0.3-1c-0.3-0.1-0.7-0.3-1.1-0.4C-0.9-1.4-1-1.4-1-1.5c0,0-0.1,0-0.1,0c0,0,0,0,0,0c0,0,0,0.1,0,0.1
			C-1.3-1.2-1.4-1-1.4-0.9c-1.1,2.7-1.4,5.8-1,8.7c0.4,2.8,1.4,5.5,3,7.8c1.6,2.4,3.9,4.4,6.5,5.7c0.3,0.2,0.7,0.3,1,0.5
			c-0.5-1.6-0.8-3.3-0.9-5c-0.1-1.7,0-3.4,0.3-5.1C7.5,10.7,7.7,9.7,8.1,8.8z"/>
	</g>
	<g id="logo_duvalle" transform="translate(-392.516 -402.787)" class="st1">
		<g id="Group_52" transform="translate(430.668 406.204)" class="st4">
			<path id="Path_57" d="M-1.9,15.5V-0.7h6.3C6.7-0.8,8.9,0,10.6,1.6c3.2,3.2,3.2,8.4,0,11.6c0,0,0,0,0,0c-1.7,1.6-3.9,2.4-6.2,2.3
				L-1.9,15.5z M1.7,12.3h2.8c2.7,0.1,4.9-2.1,5-4.8c0.1-2.7-2.1-4.9-4.8-5c-0.1,0-0.2,0-0.2,0H1.7V12.3z"/>
			<path id="Path_58" d="M20,15.7c-1.2,0.1-2.3-0.4-3.1-1.2c-0.8-0.9-1.2-2.2-1.1-3.4v-8h3.5V10c0,0.7,0.2,1.3,0.6,1.9
				c0.4,0.4,1,0.7,1.6,0.6c0.6,0,1.2-0.2,1.6-0.6c0.4-0.5,0.6-1.2,0.6-1.9V3.1h3.5v12.4h-3.5v-1.8C22.8,15,21.4,15.7,20,15.7z"/>
			<path id="Path_59" d="M35.8,15.6L29.3-0.7h3.9l4.2,11.4l4.2-11.4h3.8L39,15.6H35.8z"/>
			<path id="Path_60" d="M49.6,15.7c-1.1,0-2.2-0.3-3-1c-0.8-0.7-1.3-1.7-1.2-2.8c-0.1-1.2,0.4-2.3,1.4-3c1.1-0.7,2.4-1.1,3.7-1
				c1,0,2.1,0.2,3,0.5V8.2c0-1.5-0.9-2.3-2.7-2.3c-1.2,0-2.3,0.2-3.4,0.7l-0.9-2.7c1.5-0.7,3.2-1,4.8-1c1.5-0.1,3,0.4,4.2,1.4
				c1,1.1,1.5,2.5,1.3,4v7.2h-3.4v-1.3C52.4,15.2,51,15.8,49.6,15.7z M50.6,13.3c0.7,0,1.4-0.2,2-0.6c0.5-0.4,0.8-1,0.8-1.6v-0.6
				c-0.7-0.3-1.5-0.5-2.2-0.5c-0.6,0-1.3,0.1-1.8,0.5c-0.4,0.3-0.7,0.8-0.6,1.3c0,0.4,0.2,0.8,0.5,1.1
				C49.7,13.2,50.2,13.3,50.6,13.3L50.6,13.3z"/>
			<path id="Path_61" d="M60,15.5V-1.4h3.5v16.9L60,15.5z"/>
			<path id="Path_62" d="M66.9,15.5V-1.4h3.5v16.9L66.9,15.5z"/>
			<path id="Path_63" d="M79.7,15.8c-1.7,0.1-3.4-0.6-4.7-1.8c-1.2-1.2-1.9-2.9-1.8-4.7c0-1.7,0.6-3.3,1.7-4.6
				c1.1-1.2,2.7-1.9,4.4-1.9c1.7-0.1,3.4,0.6,4.5,1.9c1.1,1.4,1.6,3.1,1.6,4.8c0,0.2,0,0.5,0,0.9h-8.6c0.1,0.7,0.5,1.3,1,1.8
				c0.6,0.4,1.3,0.7,2,0.6c1.1,0,2.2-0.5,3-1.3l2,1.8C83.5,15,81.6,15.9,79.7,15.8z M76.6,8.3H82c-0.1-0.7-0.4-1.4-0.8-1.9
				c-0.5-0.5-1.1-0.7-1.8-0.7c-0.7,0-1.3,0.2-1.8,0.7C77.1,6.9,76.7,7.6,76.6,8.3z"/>
		</g>
		<g id="Group_53" transform="translate(392.516 402.787)" class="st4">
			<path id="Path_64" class="st5" d="M24.2,5c-0.1-2.2-0.6-4.4-1.5-6.4C13.2,1.4,7.8,11.3,10.6,20.9c0.1,0.4,0.3,0.9,0.4,1.3
				c0.1,0.2,0.2,0.5,0.3,0.7C19.2,20.5,24.5,13.2,24.2,5L24.2,5z"/>
			<path id="Path_65" class="st5" d="M8.4,9c0.3-0.8,0.6-1.6,1-2.3C7.1,2.7,3.4-0.2-1-1.5c-3.8,8.8,0,19.1,8.6,23.3
				C7.8,21.9,8,22,8.3,22.1C6.9,17.8,6.9,13.2,8.4,9z"/>
		</g>
	</g>
	<g id="check_icon" class="st1">
		<polyline class="st3" points="3.2,11.2 7.7,15.7 17.8,5.5 		"/>
	</g>
	<g id="top_nav" transform="translate(0.707 0.707)" class="st1">
		<g id="hamburger_1_" transform="translate(0 0)" class="st4">
			<line id="Line_5" class="st6" x1="2.5" y1="2.5" x2="17.1" y2="17.1"/>
			<line id="Line_6" class="st6" x1="2.5" y1="17.1" x2="17.1" y2="2.5"/>
		</g>
	</g>
	<path id="WhatsApp-2" class="st7" d="M21,10.3c-0.1,5.7-4.7,10.2-10.4,10.2c-1.7,0-3.4-0.5-4.9-1.3L0,21l1.9-5.5
		c-1-1.6-1.5-3.4-1.5-5.3C0.4,4.6,5,0,10.7,0S21,4.6,21,10.3z M10.7,1.7C5.9,1.7,2,5.5,2,10.3c0,1.8,0.6,3.6,1.7,5l-1.1,3.2l3.3-1.1
		c4,2.6,9.4,1.5,12-2.5c0.9-1.4,1.4-3,1.4-4.7C19.3,5.5,15.5,1.7,10.7,1.7z M15.9,12.6c-0.1-0.1-0.2-0.2-0.5-0.3s-1.5-0.7-1.7-0.8
		c-0.2-0.1-0.4-0.1-0.6,0.1c-0.2,0.3-0.7,0.8-0.8,1c-0.1,0.2-0.3,0.2-0.5,0.1c-0.7-0.3-1.4-0.7-2-1.2c-0.6-0.5-1-1.1-1.4-1.7
		c-0.1-0.3,0-0.4,0.1-0.5c0.1-0.1,0.3-0.3,0.4-0.4C8.9,8.6,9,8.5,9.1,8.3c0.1-0.1,0.1-0.3,0-0.4C9,7.8,8.5,6.6,8.3,6.1
		C8.1,5.6,7.9,5.6,7.7,5.6c-0.1,0-0.3,0-0.5,0C7,5.6,6.7,5.7,6.5,5.9C6,6.5,5.6,7.2,5.7,8c0.1,0.9,0.4,1.8,1,2.6
		c1.1,1.6,2.5,2.9,4.3,3.8c2.6,1,2.6,0.7,3,0.6c0.7-0.1,1.3-0.6,1.7-1.2C15.9,13.4,16,13,15.9,12.6L15.9,12.6z"/>
</g>
<g id="mail" class="st1">
</g>
<g id="Layer_3" class="st1">
	<g class="st4">
	</g>
</g>
</svg>
