<?xml version="1.0" encoding="utf-8"?>
<!-- Generator: Adobe Illustrator 22.1.0, SVG Export Plug-In . SVG Version: 6.00 Build 0)  -->
<svg version="1.1" id="Layer_1" xmlns="http://www.w3.org/2000/svg" xmlns:xlink="http://www.w3.org/1999/xlink" x="0px" y="0px"
	 viewBox="0 0 246.7 246.7" style="enable-background:new 0 0 246.7 246.7;" xml:space="preserve">
<style type="text/css">
	.st0{fill:#31A149;}
</style>
<g>
	<path class="st0" d="M2.4,5.2V2.5h2.7c8.2,0,14.9,6.7,14.9,14.9v2.7h-2.7C9.1,20.1,2.4,13.4,2.4,5.2z"/>
	<path class="st0" d="M30,20.1h-2.7v-2.7c0-8.2,6.7-14.9,14.9-14.9H45v2.7C45,13.4,38.3,20.1,30,20.1z"/>
	<path class="st0" d="M55,20.1h-2.7v-2.7c0-8.2,6.7-14.9,14.9-14.9h2.7v2.7C69.9,13.4,63.2,20.1,55,20.1z"/>
	<path class="st0" d="M77.2,5.2V2.5h2.7c8.2,0,14.9,6.7,14.9,14.9v2.7h-2.7C83.9,20.1,77.2,13.4,77.2,5.2z"/>
	<path class="st0" d="M102.1,5.2V2.5h2.7c8.2,0,14.9,6.7,14.9,14.9v2.7H117C108.8,20.1,102.1,13.4,102.1,5.2z"/>
	<path class="st0" d="M129.7,20.1H127v-2.7c0-8.2,6.7-14.9,14.9-14.9h2.7v2.7C144.6,13.4,137.9,20.1,129.7,20.1z"/>
	<path class="st0" d="M154.6,20.1H152v-2.7c0-8.2,6.7-14.9,14.9-14.9h2.7v2.7C169.6,13.4,162.9,20.1,154.6,20.1z"/>
	<path class="st0" d="M176.8,5.2V2.5h2.7c8.2,0,14.9,6.7,14.9,14.9v2.7h-2.7C183.5,20.1,176.8,13.4,176.8,5.2z"/>
	<path class="st0" d="M201.7,5.2V2.5h2.7c8.2,0,14.9,6.7,14.9,14.9v2.7h-2.7C208.4,20.1,201.7,13.4,201.7,5.2z"/>
	<path class="st0" d="M229.3,20.1h-2.7v-2.7c0-8.2,6.7-14.9,14.9-14.9h2.7v2.7C244.3,13.4,237.6,20.1,229.3,20.1z"/>
	<path class="st0" d="M2.4,42.3V45h2.7c8.2,0,14.9-6.7,14.9-14.9v-2.7h-2.7C9.1,27.4,2.4,34.1,2.4,42.3z"/>
	<path class="st0" d="M30,27.4h-2.7v2.7C27.3,38.3,34,45,42.3,45H45v-2.7C45,34.1,38.3,27.4,30,27.4z"/>
	<path class="st0" d="M55,27.4h-2.7v2.7C52.3,38.3,59,45,67.2,45h2.7v-2.7C69.9,34.1,63.2,27.4,55,27.4z"/>
	<path class="st0" d="M77.2,42.3V45h2.7c8.2,0,14.9-6.7,14.9-14.9v-2.7h-2.7C83.9,27.4,77.2,34.1,77.2,42.3z"/>
	<path class="st0" d="M102.1,42.3V45h2.7c8.2,0,14.9-6.7,14.9-14.9v-2.7H117C108.8,27.4,102.1,34.1,102.1,42.3z"/>
	<path class="st0" d="M129.7,27.4H127v2.7c0,8.2,6.7,14.9,14.9,14.9h2.7v-2.7C144.6,34.1,137.9,27.4,129.7,27.4z"/>
	<path class="st0" d="M154.6,27.4H152v2.7c0,8.2,6.7,14.9,14.9,14.9h2.7v-2.7C169.6,34.1,162.9,27.4,154.6,27.4z"/>
	<path class="st0" d="M176.8,42.3V45h2.7c8.2,0,14.9-6.7,14.9-14.9v-2.7h-2.7C183.5,27.4,176.8,34.1,176.8,42.3z"/>
	<path class="st0" d="M201.7,42.3V45h2.7c8.2,0,14.9-6.7,14.9-14.9v-2.7h-2.7C208.4,27.4,201.7,34.1,201.7,42.3z"/>
	<path class="st0" d="M229.3,27.4h-2.7v2.7c0,8.2,6.7,14.9,14.9,14.9h2.7v-2.7C244.3,34.1,237.6,27.4,229.3,27.4z"/>
	<path class="st0" d="M2.4,55v-2.7h2.7c8.2,0,14.9,6.7,14.9,14.9v2.7h-2.7C9.1,69.9,2.4,63.2,2.4,55z"/>
	<path class="st0" d="M30,69.9h-2.7v-2.7c0-8.2,6.7-14.9,14.9-14.9H45V55C45,63.2,38.3,69.9,30,69.9z"/>
	<path class="st0" d="M55,69.9h-2.7v-2.7c0-8.2,6.7-14.9,14.9-14.9h2.7V55C69.9,63.2,63.2,69.9,55,69.9z"/>
	<path class="st0" d="M77.2,55v-2.7h2.7c8.2,0,14.9,6.7,14.9,14.9v2.7h-2.7C83.9,69.9,77.2,63.2,77.2,55z"/>
	<path class="st0" d="M102.1,55v-2.7h2.7c8.2,0,14.9,6.7,14.9,14.9v2.7H117C108.8,69.9,102.1,63.2,102.1,55z"/>
	<path class="st0" d="M129.7,69.9H127v-2.7c0-8.2,6.7-14.9,14.9-14.9h2.7V55C144.6,63.2,137.9,69.9,129.7,69.9z"/>
	<path class="st0" d="M154.6,69.9H152v-2.7c0-8.2,6.7-14.9,14.9-14.9h2.7V55C169.6,63.2,162.9,69.9,154.6,69.9z"/>
	<path class="st0" d="M176.8,55v-2.7h2.7c8.2,0,14.9,6.7,14.9,14.9v2.7h-2.7C183.5,69.9,176.8,63.2,176.8,55z"/>
	<path class="st0" d="M201.7,55v-2.7h2.7c8.2,0,14.9,6.7,14.9,14.9v2.7h-2.7C208.4,69.9,201.7,63.2,201.7,55z"/>
	<path class="st0" d="M229.3,69.9h-2.7v-2.7c0-8.2,6.7-14.9,14.9-14.9h2.7V55C244.3,63.2,237.6,69.9,229.3,69.9z"/>
	<path class="st0" d="M2.4,92.1v2.7h2.7c8.2,0,14.9-6.7,14.9-14.9v-2.7h-2.7C9.1,77.2,2.4,83.9,2.4,92.1z"/>
	<path class="st0" d="M30,77.2h-2.7v2.7c0,8.2,6.7,14.9,14.9,14.9H45v-2.7C45,83.9,38.3,77.2,30,77.2z"/>
	<path class="st0" d="M55,77.2h-2.7v2.7c0,8.2,6.7,14.9,14.9,14.9h2.7v-2.7C69.9,83.9,63.2,77.2,55,77.2z"/>
	<path class="st0" d="M77.2,92.1v2.7h2.7c8.2,0,14.9-6.7,14.9-14.9v-2.7h-2.7C83.9,77.2,77.2,83.9,77.2,92.1z"/>
	<path class="st0" d="M102.1,92.1v2.7h2.7c8.2,0,14.9-6.7,14.9-14.9v-2.7H117C108.8,77.2,102.1,83.9,102.1,92.1z"/>
	<path class="st0" d="M129.7,77.2H127v2.7c0,8.2,6.7,14.9,14.9,14.9h2.7v-2.7C144.6,83.9,137.9,77.2,129.7,77.2z"/>
	<path class="st0" d="M154.6,77.2H152v2.7c0,8.2,6.7,14.9,14.9,14.9h2.7v-2.7C169.6,83.9,162.9,77.2,154.6,77.2z"/>
	<path class="st0" d="M176.8,92.1v2.7h2.7c8.2,0,14.9-6.7,14.9-14.9v-2.7h-2.7C183.5,77.2,176.8,83.9,176.8,92.1z"/>
	<path class="st0" d="M201.7,92.1v2.7h2.7c8.2,0,14.9-6.7,14.9-14.9v-2.7h-2.7C208.4,77.2,201.7,83.9,201.7,92.1z"/>
	<path class="st0" d="M229.3,77.2h-2.7v2.7c0,8.2,6.7,14.9,14.9,14.9h2.7v-2.7C244.3,83.9,237.6,77.2,229.3,77.2z"/>
	<path class="st0" d="M2.4,104.8v-2.7h2.7c8.2,0,14.9,6.7,14.9,14.9v2.7h-2.7C9.1,119.7,2.4,113,2.4,104.8z"/>
	<path class="st0" d="M30,119.7h-2.7V117c0-8.2,6.7-14.9,14.9-14.9H45v2.7C45,113,38.3,119.7,30,119.7z"/>
	<path class="st0" d="M55,119.7h-2.7V117c0-8.2,6.7-14.9,14.9-14.9h2.7v2.7C69.9,113,63.2,119.7,55,119.7z"/>
	<path class="st0" d="M77.2,104.8v-2.7h2.7c8.2,0,14.9,6.7,14.9,14.9v2.7h-2.7C83.9,119.7,77.2,113,77.2,104.8z"/>
	<path class="st0" d="M102.1,104.8v-2.7h2.7c8.2,0,14.9,6.7,14.9,14.9v2.7H117C108.8,119.7,102.1,113,102.1,104.8z"/>
	<path class="st0" d="M129.7,119.7H127V117c0-8.2,6.7-14.9,14.9-14.9h2.7v2.7C144.6,113,137.9,119.7,129.7,119.7z"/>
	<path class="st0" d="M154.6,119.7H152V117c0-8.2,6.7-14.9,14.9-14.9h2.7v2.7C169.6,113,162.9,119.7,154.6,119.7z"/>
	<path class="st0" d="M176.8,104.8v-2.7h2.7c8.2,0,14.9,6.7,14.9,14.9v2.7h-2.7C183.5,119.7,176.8,113,176.8,104.8z"/>
	<path class="st0" d="M201.7,104.8v-2.7h2.7c8.2,0,14.9,6.7,14.9,14.9v2.7h-2.7C208.4,119.7,201.7,113,201.7,104.8z"/>
	<path class="st0" d="M229.3,119.7h-2.7V117c0-8.2,6.7-14.9,14.9-14.9h2.7v2.7C244.3,113,237.6,119.7,229.3,119.7z"/>
	<path class="st0" d="M2.4,141.9v2.7h2.7c8.2,0,14.9-6.7,14.9-14.9V127h-2.7C9.1,127,2.4,133.7,2.4,141.9z"/>
	<path class="st0" d="M30,127h-2.7v2.7c0,8.2,6.7,14.9,14.9,14.9H45v-2.7C45,133.7,38.3,127,30,127z"/>
	<path class="st0" d="M55,127h-2.7v2.7c0,8.2,6.7,14.9,14.9,14.9h2.7v-2.7C69.9,133.7,63.2,127,55,127z"/>
	<path class="st0" d="M77.2,141.9v2.7h2.7c8.2,0,14.9-6.7,14.9-14.9V127h-2.7C83.9,127,77.2,133.7,77.2,141.9z"/>
	<path class="st0" d="M102.1,141.9v2.7h2.7c8.2,0,14.9-6.7,14.9-14.9V127H117C108.8,127,102.1,133.7,102.1,141.9z"/>
	<path class="st0" d="M129.7,127H127v2.7c0,8.2,6.7,14.9,14.9,14.9h2.7v-2.7C144.6,133.7,137.9,127,129.7,127z"/>
	<path class="st0" d="M154.6,127H152v2.7c0,8.2,6.7,14.9,14.9,14.9h2.7v-2.7C169.6,133.7,162.9,127,154.6,127z"/>
	<path class="st0" d="M176.8,141.9v2.7h2.7c8.2,0,14.9-6.7,14.9-14.9V127h-2.7C183.5,127,176.8,133.7,176.8,141.9z"/>
	<path class="st0" d="M201.7,141.9v2.7h2.7c8.2,0,14.9-6.7,14.9-14.9V127h-2.7C208.4,127,201.7,133.7,201.7,141.9z"/>
	<path class="st0" d="M229.3,127h-2.7v2.7c0,8.2,6.7,14.9,14.9,14.9h2.7v-2.7C244.3,133.7,237.6,127,229.3,127z"/>
	<path class="st0" d="M2.4,154.6v-2.7h2.7c8.2,0,14.9,6.7,14.9,14.9v2.7h-2.7C9.1,169.5,2.4,162.8,2.4,154.6z"/>
	<path class="st0" d="M30,169.5h-2.7v-2.7c0-8.2,6.7-14.9,14.9-14.9H45v2.7C45,162.8,38.3,169.5,30,169.5z"/>
	<path class="st0" d="M55,169.5h-2.7v-2.7c0-8.2,6.7-14.9,14.9-14.9h2.7v2.7C69.9,162.8,63.2,169.5,55,169.5z"/>
	<path class="st0" d="M77.2,154.6v-2.7h2.7c8.2,0,14.9,6.7,14.9,14.9v2.7h-2.7C83.9,169.5,77.2,162.8,77.2,154.6z"/>
	<path class="st0" d="M102.1,154.6v-2.7h2.7c8.2,0,14.9,6.7,14.9,14.9v2.7H117C108.8,169.5,102.1,162.8,102.1,154.6z"/>
	<path class="st0" d="M129.7,169.5H127v-2.7c0-8.2,6.7-14.9,14.9-14.9h2.7v2.7C144.6,162.8,137.9,169.5,129.7,169.5z"/>
	<path class="st0" d="M154.6,169.5H152v-2.7c0-8.2,6.7-14.9,14.9-14.9h2.7v2.7C169.6,162.8,162.9,169.5,154.6,169.5z"/>
	<path class="st0" d="M176.8,154.6v-2.7h2.7c8.2,0,14.9,6.7,14.9,14.9v2.7h-2.7C183.5,169.5,176.8,162.8,176.8,154.6z"/>
	<path class="st0" d="M201.7,154.6v-2.7h2.7c8.2,0,14.9,6.7,14.9,14.9v2.7h-2.7C208.4,169.5,201.7,162.8,201.7,154.6z"/>
	<path class="st0" d="M229.3,169.5h-2.7v-2.7c0-8.2,6.7-14.9,14.9-14.9h2.7v2.7C244.3,162.8,237.6,169.5,229.3,169.5z"/>
	<path class="st0" d="M2.4,191.7v2.7h2.7c8.2,0,14.9-6.7,14.9-14.9v-2.7h-2.7C9.1,176.8,2.4,183.5,2.4,191.7z"/>
	<path class="st0" d="M30,176.8h-2.7v2.7c0,8.2,6.7,14.9,14.9,14.9H45v-2.7C45,183.5,38.3,176.8,30,176.8z"/>
	<path class="st0" d="M55,176.8h-2.7v2.7c0,8.2,6.7,14.9,14.9,14.9h2.7v-2.7C69.9,183.5,63.2,176.8,55,176.8z"/>
	<path class="st0" d="M77.2,191.7v2.7h2.7c8.2,0,14.9-6.7,14.9-14.9v-2.7h-2.7C83.9,176.8,77.2,183.5,77.2,191.7z"/>
	<path class="st0" d="M102.1,191.7v2.7h2.7c8.2,0,14.9-6.7,14.9-14.9v-2.7H117C108.8,176.8,102.1,183.5,102.1,191.7z"/>
	<path class="st0" d="M129.7,176.8H127v2.7c0,8.2,6.7,14.9,14.9,14.9h2.7v-2.7C144.6,183.5,137.9,176.8,129.7,176.8z"/>
	<path class="st0" d="M154.6,176.8H152v2.7c0,8.2,6.7,14.9,14.9,14.9h2.7v-2.7C169.6,183.5,162.9,176.8,154.6,176.8z"/>
	<path class="st0" d="M176.8,191.7v2.7h2.7c8.2,0,14.9-6.7,14.9-14.9v-2.7h-2.7C183.5,176.8,176.8,183.5,176.8,191.7z"/>
	<path class="st0" d="M201.7,191.7v2.7h2.7c8.2,0,14.9-6.7,14.9-14.9v-2.7h-2.7C208.4,176.8,201.7,183.5,201.7,191.7z"/>
	<path class="st0" d="M229.3,176.8h-2.7v2.7c0,8.2,6.7,14.9,14.9,14.9h2.7v-2.7C244.3,183.5,237.6,176.8,229.3,176.8z"/>
	<path class="st0" d="M2.4,204.4v-2.7h2.7c8.2,0,14.9,6.7,14.9,14.9v2.7h-2.7C9.1,219.3,2.4,212.6,2.4,204.4z"/>
	<path class="st0" d="M30,219.3h-2.7v-2.7c0-8.2,6.7-14.9,14.9-14.9H45v2.7C45,212.6,38.3,219.3,30,219.3z"/>
	<path class="st0" d="M55,219.3h-2.7v-2.7c0-8.2,6.7-14.9,14.9-14.9h2.7v2.7C69.9,212.6,63.2,219.3,55,219.3z"/>
	<path class="st0" d="M77.2,204.4v-2.7h2.7c8.2,0,14.9,6.7,14.9,14.9v2.7h-2.7C83.9,219.3,77.2,212.6,77.2,204.4z"/>
	<path class="st0" d="M102.1,204.4v-2.7h2.7c8.2,0,14.9,6.7,14.9,14.9v2.7H117C108.8,219.3,102.1,212.6,102.1,204.4z"/>
	<path class="st0" d="M129.7,219.3H127v-2.7c0-8.2,6.7-14.9,14.9-14.9h2.7v2.7C144.6,212.6,137.9,219.3,129.7,219.3z"/>
	<path class="st0" d="M154.6,219.3H152v-2.7c0-8.2,6.7-14.9,14.9-14.9h2.7v2.7C169.6,212.6,162.9,219.3,154.6,219.3z"/>
	<path class="st0" d="M176.8,204.4v-2.7h2.7c8.2,0,14.9,6.7,14.9,14.9v2.7h-2.7C183.5,219.3,176.8,212.6,176.8,204.4z"/>
	<path class="st0" d="M201.7,204.4v-2.7h2.7c8.2,0,14.9,6.7,14.9,14.9v2.7h-2.7C208.4,219.3,201.7,212.6,201.7,204.4z"/>
	<path class="st0" d="M229.3,219.3h-2.7v-2.7c0-8.2,6.7-14.9,14.9-14.9h2.7v2.7C244.3,212.6,237.6,219.3,229.3,219.3z"/>
	<path class="st0" d="M2.4,241.5v2.7h2.7c8.2,0,14.9-6.7,14.9-14.9v-2.7h-2.7C9.1,226.6,2.4,233.3,2.4,241.5z"/>
	<path class="st0" d="M30,226.6h-2.7v2.7c0,8.2,6.7,14.9,14.9,14.9H45v-2.7C45,233.3,38.3,226.6,30,226.6z"/>
	<path class="st0" d="M55,226.6h-2.7v2.7c0,8.2,6.7,14.9,14.9,14.9h2.7v-2.7C69.9,233.3,63.2,226.6,55,226.6z"/>
	<path class="st0" d="M77.2,241.5v2.7h2.7c8.2,0,14.9-6.7,14.9-14.9v-2.7h-2.7C83.9,226.6,77.2,233.3,77.2,241.5z"/>
	<path class="st0" d="M102.1,241.5v2.7h2.7c8.2,0,14.9-6.7,14.9-14.9v-2.7H117C108.8,226.6,102.1,233.3,102.1,241.5z"/>
	<path class="st0" d="M129.7,226.6H127v2.7c0,8.2,6.7,14.9,14.9,14.9h2.7v-2.7C144.6,233.3,137.9,226.6,129.7,226.6z"/>
	<path class="st0" d="M154.6,226.6H152v2.7c0,8.2,6.7,14.9,14.9,14.9h2.7v-2.7C169.6,233.3,162.9,226.6,154.6,226.6z"/>
	<path class="st0" d="M176.8,241.5v2.7h2.7c8.2,0,14.9-6.7,14.9-14.9v-2.7h-2.7C183.5,226.6,176.8,233.3,176.8,241.5z"/>
	<path class="st0" d="M201.7,241.5v2.7h2.7c8.2,0,14.9-6.7,14.9-14.9v-2.7h-2.7C208.4,226.6,201.7,233.3,201.7,241.5z"/>
	<path class="st0" d="M229.3,226.6h-2.7v2.7c0,8.2,6.7,14.9,14.9,14.9h2.7v-2.7C244.3,233.3,237.6,226.6,229.3,226.6z"/>
</g>
</svg>
