<?xml version="1.0" encoding="utf-8"?>
<!-- Generator: Adobe Illustrator 22.1.0, SVG Export Plug-In . SVG Version: 6.00 Build 0)  -->
<svg version="1.1" id="Layer_1" xmlns="http://www.w3.org/2000/svg" xmlns:xlink="http://www.w3.org/1999/xlink" x="0px" y="0px"
	 viewBox="0 0 1661.7 1098.7" style="enable-background:new 0 0 1661.7 1098.7;" xml:space="preserve">
<style type="text/css">
	.st0{display:none;}
	.st1{display:inline;}
	.st2{fill:#319B42;}
	.st3{display:inline;fill:#319B42;}
	.st4{fill:#F2FFF4;}
</style>
<g id="pattern" transform="translate(0)" class="st0">
	<g id="Group_239" transform="translate(0 202.544)" class="st1">
		<path id="Path_237" class="st2" d="M659.6,358.3L659.6,358.3L659.6,358.3c4,3.4,4.4,9.4,0.9,13.4c-0.3,0.3-0.6,0.6-0.9,0.9l0,0
			l0,0c-4-3.4-4.4-9.4-0.9-13.4C659,358.9,659.3,358.6,659.6,358.3z"/>
	</g>
	<g id="Group_240" transform="translate(23.981 202.544)" class="st1">
		<path id="Path_238" class="st2" d="M659.6,358.3L659.6,358.3L659.6,358.3c4,3.4,4.4,9.4,0.9,13.4c-0.3,0.3-0.6,0.6-0.9,0.9l0,0
			l0,0c-4-3.4-4.4-9.4-0.9-13.4C659,358.9,659.3,358.6,659.6,358.3z"/>
	</g>
	<g id="Group_241" transform="translate(47.88 202.544)" class="st1">
		<path id="Path_239" class="st2" d="M659.6,358.3L659.6,358.3L659.6,358.3c4,3.4,4.4,9.4,0.9,13.4c-0.3,0.3-0.6,0.6-0.9,0.9l0,0
			l0,0c-4-3.4-4.4-9.4-0.9-13.4C659,358.9,659.3,358.6,659.6,358.3z"/>
	</g>
	<g id="Group_242" transform="translate(71.82 202.544)" class="st1">
		<path id="Path_240" class="st2" d="M659.6,358.3L659.6,358.3L659.6,358.3c4,3.4,4.4,9.4,0.9,13.4c-0.3,0.3-0.6,0.6-0.9,0.9l0,0
			l0,0c-4-3.4-4.4-9.4-0.9-13.4C659,358.9,659.3,358.6,659.6,358.3z"/>
	</g>
	<g id="Group_243" transform="translate(95.76 202.544)" class="st1">
		<path id="Path_241" class="st2" d="M659.6,358.3L659.6,358.3L659.6,358.3c4,3.4,4.4,9.4,0.9,13.4c-0.3,0.3-0.6,0.6-0.9,0.9l0,0
			l0,0c-4-3.4-4.4-9.4-0.9-13.4C659,358.9,659.3,358.6,659.6,358.3z"/>
	</g>
	<g id="Group_244" transform="translate(119.7 202.544)" class="st1">
		<path id="Path_242" class="st2" d="M659.6,358.3L659.6,358.3L659.6,358.3c4,3.4,4.4,9.4,0.9,13.4c-0.3,0.3-0.6,0.6-0.9,0.9l0,0
			l0,0c-4-3.4-4.4-9.4-0.9-13.4C659,358.9,659.3,358.6,659.6,358.3z"/>
	</g>
	<g id="Group_245" transform="translate(143.64 202.544)" class="st1">
		<path id="Path_243" class="st2" d="M659.6,358.3L659.6,358.3L659.6,358.3c4,3.4,4.4,9.4,0.9,13.4c-0.3,0.3-0.6,0.6-0.9,0.9l0,0
			l0,0c-4-3.4-4.4-9.4-0.9-13.4C659,358.9,659.3,358.6,659.6,358.3z"/>
	</g>
	<g id="Group_246" transform="translate(167.58 202.544)" class="st1">
		<path id="Path_244" class="st2" d="M659.6,358.3L659.6,358.3L659.6,358.3c4,3.4,4.4,9.4,0.9,13.4c-0.3,0.3-0.6,0.6-0.9,0.9l0,0
			l0,0c-4-3.4-4.4-9.4-0.9-13.4C659,358.9,659.3,358.6,659.6,358.3z"/>
	</g>
	<g id="Group_247" transform="translate(191.521 202.544)" class="st1">
		<path id="Path_245" class="st2" d="M659.6,358.3L659.6,358.3L659.6,358.3c4,3.4,4.4,9.4,0.9,13.4c-0.3,0.3-0.6,0.6-0.9,0.9l0,0
			l0,0c-4-3.4-4.4-9.4-0.9-13.4C659,358.9,659.3,358.6,659.6,358.3z"/>
	</g>
	<g id="Group_248" transform="translate(215.419 202.544)" class="st1">
		<path id="Path_246" class="st2" d="M659.6,358.3L659.6,358.3L659.6,358.3c4,3.4,4.4,9.4,0.9,13.4c-0.3,0.3-0.6,0.6-0.9,0.9l0,0
			l0,0c-4-3.4-4.4-9.4-0.9-13.4C659,358.9,659.3,358.6,659.6,358.3z"/>
	</g>
	<g id="Group_249" transform="translate(239.401 202.544)" class="st1">
		<path id="Path_247" class="st2" d="M659.6,358.3L659.6,358.3L659.6,358.3c4,3.4,4.4,9.4,0.9,13.4c-0.3,0.3-0.6,0.6-0.9,0.9l0,0
			l0,0c-4-3.4-4.4-9.4-0.9-13.4C659,358.9,659.3,358.6,659.6,358.3z"/>
	</g>
	<g id="Group_250" transform="translate(11.658 231.593)" class="st1">
		<path id="Path_248" class="st2" d="M659.6,358.3L659.6,358.3L659.6,358.3c4,3.4,4.4,9.4,0.9,13.4c-0.3,0.3-0.6,0.7-0.9,0.9l0,0
			l0,0c-4-3.4-4.4-9.4-0.9-13.4C659,358.9,659.3,358.6,659.6,358.3z"/>
	</g>
	<g id="Group_251" transform="translate(35.639 231.593)" class="st1">
		<path id="Path_249" class="st2" d="M659.6,358.3L659.6,358.3L659.6,358.3c4,3.4,4.4,9.4,0.9,13.4c-0.3,0.3-0.6,0.7-0.9,0.9l0,0
			l0,0c-4-3.4-4.4-9.4-0.9-13.4C659,358.9,659.3,358.6,659.6,358.3z"/>
	</g>
	<g id="Group_252" transform="translate(59.519 231.593)" class="st1">
		<path id="Path_250" class="st2" d="M659.6,358.3L659.6,358.3L659.6,358.3c4,3.4,4.4,9.4,0.9,13.4c-0.3,0.3-0.6,0.7-0.9,0.9l0,0
			l0,0c-4-3.4-4.4-9.4-0.9-13.4C659,358.9,659.3,358.6,659.6,358.3z"/>
	</g>
	<g id="Group_253" transform="translate(83.459 231.593)" class="st1">
		<path id="Path_251" class="st2" d="M659.6,358.3L659.6,358.3L659.6,358.3c4,3.4,4.4,9.4,0.9,13.4c-0.3,0.3-0.6,0.7-0.9,0.9l0,0
			l0,0c-4-3.4-4.4-9.4-0.9-13.4C659,358.9,659.3,358.6,659.6,358.3z"/>
	</g>
	<g id="Group_254" transform="translate(107.399 231.593)" class="st1">
		<path id="Path_252" class="st2" d="M659.6,358.3L659.6,358.3L659.6,358.3c4,3.4,4.4,9.4,0.9,13.4c-0.3,0.3-0.6,0.7-0.9,0.9l0,0
			l0,0c-4-3.4-4.4-9.4-0.9-13.4C659,358.9,659.3,358.6,659.6,358.3z"/>
	</g>
	<g id="Group_255" transform="translate(131.339 231.593)" class="st1">
		<path id="Path_253" class="st2" d="M659.6,358.3L659.6,358.3L659.6,358.3c4,3.4,4.4,9.4,0.9,13.4c-0.3,0.3-0.6,0.7-0.9,0.9l0,0
			l0,0c-4-3.4-4.4-9.4-0.9-13.4C659,358.9,659.3,358.6,659.6,358.3z"/>
	</g>
	<g id="Group_256" transform="translate(155.279 231.593)" class="st1">
		<path id="Path_254" class="st2" d="M659.6,358.3L659.6,358.3L659.6,358.3c4,3.4,4.4,9.4,0.9,13.4c-0.3,0.3-0.6,0.7-0.9,0.9l0,0
			l0,0c-4-3.4-4.4-9.4-0.9-13.4C659,358.9,659.3,358.6,659.6,358.3z"/>
	</g>
	<g id="Group_257" transform="translate(179.219 231.593)" class="st1">
		<path id="Path_255" class="st2" d="M659.6,358.3L659.6,358.3L659.6,358.3c4,3.4,4.4,9.4,0.9,13.4c-0.3,0.3-0.6,0.7-0.9,0.9l0,0
			l0,0c-4-3.4-4.4-9.4-0.9-13.4C659,358.9,659.3,358.6,659.6,358.3z"/>
	</g>
	<g id="Group_258" transform="translate(203.097 231.593)" class="st1">
		<path id="Path_256" class="st2" d="M659.6,358.3L659.6,358.3L659.6,358.3c4,3.4,4.4,9.4,0.9,13.4c-0.3,0.3-0.6,0.7-0.9,0.9l0,0
			l0,0c-4-3.4-4.4-9.4-0.9-13.4C659,358.9,659.3,358.6,659.6,358.3z"/>
	</g>
	<g id="Group_259" transform="translate(227.078 231.593)" class="st1">
		<path id="Path_257" class="st2" d="M659.6,358.3L659.6,358.3L659.6,358.3c4,3.4,4.4,9.4,0.9,13.4c-0.3,0.3-0.6,0.7-0.9,0.9l0,0
			l0,0c-4-3.4-4.4-9.4-0.9-13.4C659,358.9,659.3,358.6,659.6,358.3z"/>
	</g>
	<g id="Group_260" transform="translate(0 144.733)" class="st1">
		<path id="Path_258" class="st2" d="M659.6,358.3L659.6,358.3L659.6,358.3c4,3.4,4.4,9.4,0.9,13.4c-0.3,0.3-0.6,0.6-0.9,0.9l0,0
			l0,0c-4-3.4-4.4-9.4-0.9-13.4C659,358.9,659.3,358.6,659.6,358.3z"/>
	</g>
	<g id="Group_261" transform="translate(23.981 144.733)" class="st1">
		<path id="Path_259" class="st2" d="M659.6,358.3L659.6,358.3L659.6,358.3c4,3.4,4.4,9.4,0.9,13.4c-0.3,0.3-0.6,0.6-0.9,0.9l0,0
			l0,0c-4-3.4-4.4-9.4-0.9-13.4C659,358.9,659.3,358.6,659.6,358.3z"/>
	</g>
	<g id="Group_262" transform="translate(47.88 144.733)" class="st1">
		<path id="Path_260" class="st2" d="M659.6,358.3L659.6,358.3L659.6,358.3c4,3.4,4.4,9.4,0.9,13.4c-0.3,0.3-0.6,0.6-0.9,0.9l0,0
			l0,0c-4-3.4-4.4-9.4-0.9-13.4C659,358.9,659.3,358.6,659.6,358.3z"/>
	</g>
	<g id="Group_263" transform="translate(71.82 144.733)" class="st1">
		<path id="Path_261" class="st2" d="M659.6,358.3L659.6,358.3L659.6,358.3c4,3.4,4.4,9.4,0.9,13.4c-0.3,0.3-0.6,0.6-0.9,0.9l0,0
			l0,0c-4-3.4-4.4-9.4-0.9-13.4C659,358.9,659.3,358.6,659.6,358.3z"/>
	</g>
	<g id="Group_264" transform="translate(95.76 144.733)" class="st1">
		<path id="Path_262" class="st2" d="M659.6,358.3L659.6,358.3L659.6,358.3c4,3.4,4.4,9.4,0.9,13.4c-0.3,0.3-0.6,0.6-0.9,0.9l0,0
			l0,0c-4-3.4-4.4-9.4-0.9-13.4C659,358.9,659.3,358.6,659.6,358.3z"/>
	</g>
	<g id="Group_265" transform="translate(119.7 144.733)" class="st1">
		<path id="Path_263" class="st2" d="M659.6,358.3L659.6,358.3L659.6,358.3c4,3.4,4.4,9.4,0.9,13.4c-0.3,0.3-0.6,0.6-0.9,0.9l0,0
			l0,0c-4-3.4-4.4-9.4-0.9-13.4C659,358.9,659.3,358.6,659.6,358.3z"/>
	</g>
	<g id="Group_266" transform="translate(143.64 144.733)" class="st1">
		<path id="Path_264" class="st2" d="M659.6,358.3L659.6,358.3L659.6,358.3c4,3.4,4.4,9.4,0.9,13.4c-0.3,0.3-0.6,0.6-0.9,0.9l0,0
			l0,0c-4-3.4-4.4-9.4-0.9-13.4C659,358.9,659.3,358.6,659.6,358.3z"/>
	</g>
	<g id="Group_267" transform="translate(167.58 144.733)" class="st1">
		<path id="Path_265" class="st2" d="M659.6,358.3L659.6,358.3L659.6,358.3c4,3.4,4.4,9.4,0.9,13.4c-0.3,0.3-0.6,0.6-0.9,0.9l0,0
			l0,0c-4-3.4-4.4-9.4-0.9-13.4C659,358.9,659.3,358.6,659.6,358.3z"/>
	</g>
	<g id="Group_268" transform="translate(191.521 144.733)" class="st1">
		<path id="Path_266" class="st2" d="M659.6,358.3L659.6,358.3L659.6,358.3c4,3.4,4.4,9.4,0.9,13.4c-0.3,0.3-0.6,0.6-0.9,0.9l0,0
			l0,0c-4-3.4-4.4-9.4-0.9-13.4C659,358.9,659.3,358.6,659.6,358.3z"/>
	</g>
	<g id="Group_269" transform="translate(215.419 144.733)" class="st1">
		<path id="Path_267" class="st2" d="M659.6,358.3L659.6,358.3L659.6,358.3c4,3.4,4.4,9.4,0.9,13.4c-0.3,0.3-0.6,0.6-0.9,0.9l0,0
			l0,0c-4-3.4-4.4-9.4-0.9-13.4C659,358.9,659.3,358.6,659.6,358.3z"/>
	</g>
	<g id="Group_270" transform="translate(239.401 144.733)" class="st1">
		<path id="Path_268" class="st2" d="M659.6,358.3L659.6,358.3L659.6,358.3c4,3.4,4.4,9.4,0.9,13.4c-0.3,0.3-0.6,0.6-0.9,0.9l0,0
			l0,0c-4-3.4-4.4-9.4-0.9-13.4C659,358.9,659.3,358.6,659.6,358.3z"/>
	</g>
	<g id="Group_271" transform="translate(11.658 173.695)" class="st1">
		<path id="Path_269" class="st2" d="M659.6,358.3L659.6,358.3L659.6,358.3c4,3.4,4.4,9.4,0.9,13.4c-0.3,0.3-0.6,0.7-0.9,0.9l0,0
			l0,0c-4-3.4-4.4-9.4-0.9-13.4C659,358.9,659.3,358.6,659.6,358.3z"/>
	</g>
	<g id="Group_272" transform="translate(35.639 173.695)" class="st1">
		<path id="Path_270" class="st2" d="M659.6,358.3L659.6,358.3L659.6,358.3c4,3.4,4.4,9.4,0.9,13.4c-0.3,0.3-0.6,0.7-0.9,0.9l0,0
			l0,0c-4-3.4-4.4-9.4-0.9-13.4C659,358.9,659.3,358.6,659.6,358.3z"/>
	</g>
	<g id="Group_273" transform="translate(59.519 173.695)" class="st1">
		<path id="Path_271" class="st2" d="M659.6,358.3L659.6,358.3L659.6,358.3c4,3.4,4.4,9.4,0.9,13.4c-0.3,0.3-0.6,0.7-0.9,0.9l0,0
			l0,0c-4-3.4-4.4-9.4-0.9-13.4C659,358.9,659.3,358.6,659.6,358.3z"/>
	</g>
	<g id="Group_274" transform="translate(83.459 173.695)" class="st1">
		<path id="Path_272" class="st2" d="M659.6,358.3L659.6,358.3L659.6,358.3c4,3.4,4.4,9.4,0.9,13.4c-0.3,0.3-0.6,0.7-0.9,0.9l0,0
			l0,0c-4-3.4-4.4-9.4-0.9-13.4C659,358.9,659.3,358.6,659.6,358.3z"/>
	</g>
	<g id="Group_275" transform="translate(107.399 173.695)" class="st1">
		<path id="Path_273" class="st2" d="M659.6,358.3L659.6,358.3L659.6,358.3c4,3.4,4.4,9.4,0.9,13.4c-0.3,0.3-0.6,0.7-0.9,0.9l0,0
			l0,0c-4-3.4-4.4-9.4-0.9-13.4C659,358.9,659.3,358.6,659.6,358.3z"/>
	</g>
	<g id="Group_276" transform="translate(131.339 173.695)" class="st1">
		<path id="Path_274" class="st2" d="M659.6,358.3L659.6,358.3L659.6,358.3c4,3.4,4.4,9.4,0.9,13.4c-0.3,0.3-0.6,0.7-0.9,0.9l0,0
			l0,0c-4-3.4-4.4-9.4-0.9-13.4C659,358.9,659.3,358.6,659.6,358.3z"/>
	</g>
	<g id="Group_277" transform="translate(155.279 173.695)" class="st1">
		<path id="Path_275" class="st2" d="M659.6,358.3L659.6,358.3L659.6,358.3c4,3.4,4.4,9.4,0.9,13.4c-0.3,0.3-0.6,0.7-0.9,0.9l0,0
			l0,0c-4-3.4-4.4-9.4-0.9-13.4C659,358.9,659.3,358.6,659.6,358.3z"/>
	</g>
	<g id="Group_278" transform="translate(179.219 173.695)" class="st1">
		<path id="Path_276" class="st2" d="M659.6,358.3L659.6,358.3L659.6,358.3c4,3.4,4.4,9.4,0.9,13.4c-0.3,0.3-0.6,0.7-0.9,0.9l0,0
			l0,0c-4-3.4-4.4-9.4-0.9-13.4C659,358.9,659.3,358.6,659.6,358.3z"/>
	</g>
	<g id="Group_279" transform="translate(203.097 173.695)" class="st1">
		<path id="Path_277" class="st2" d="M659.6,358.3L659.6,358.3L659.6,358.3c4,3.4,4.4,9.4,0.9,13.4c-0.3,0.3-0.6,0.7-0.9,0.9l0,0
			l0,0c-4-3.4-4.4-9.4-0.9-13.4C659,358.9,659.3,358.6,659.6,358.3z"/>
	</g>
	<g id="Group_280" transform="translate(227.078 173.695)" class="st1">
		<path id="Path_278" class="st2" d="M659.6,358.3L659.6,358.3L659.6,358.3c4,3.4,4.4,9.4,0.9,13.4c-0.3,0.3-0.6,0.7-0.9,0.9l0,0
			l0,0c-4-3.4-4.4-9.4-0.9-13.4C659,358.9,659.3,358.6,659.6,358.3z"/>
	</g>
	<g id="Group_281" transform="translate(0 86.835)" class="st1">
		<path id="Path_279" class="st2" d="M659.6,358.3L659.6,358.3L659.6,358.3c4,3.4,4.4,9.4,0.9,13.4c-0.3,0.3-0.6,0.6-0.9,0.9l0,0
			l0,0c-4-3.4-4.4-9.4-0.9-13.4C659,358.9,659.3,358.6,659.6,358.3z"/>
	</g>
	<g id="Group_282" transform="translate(23.981 86.835)" class="st1">
		<path id="Path_280" class="st2" d="M659.6,358.3L659.6,358.3L659.6,358.3c4,3.4,4.4,9.4,0.9,13.4c-0.3,0.3-0.6,0.6-0.9,0.9l0,0
			l0,0c-4-3.4-4.4-9.4-0.9-13.4C659,358.9,659.3,358.6,659.6,358.3z"/>
	</g>
	<g id="Group_283" transform="translate(47.88 86.835)" class="st1">
		<path id="Path_281" class="st2" d="M659.6,358.3L659.6,358.3L659.6,358.3c4,3.4,4.4,9.4,0.9,13.4c-0.3,0.3-0.6,0.6-0.9,0.9l0,0
			l0,0c-4-3.4-4.4-9.4-0.9-13.4C659,358.9,659.3,358.6,659.6,358.3z"/>
	</g>
	<g id="Group_284" transform="translate(71.82 86.835)" class="st1">
		<path id="Path_282" class="st2" d="M659.6,358.3L659.6,358.3L659.6,358.3c4,3.4,4.4,9.4,0.9,13.4c-0.3,0.3-0.6,0.6-0.9,0.9l0,0
			l0,0c-4-3.4-4.4-9.4-0.9-13.4C659,358.9,659.3,358.6,659.6,358.3z"/>
	</g>
	<g id="Group_285" transform="translate(95.76 86.835)" class="st1">
		<path id="Path_283" class="st2" d="M659.6,358.3L659.6,358.3L659.6,358.3c4,3.4,4.4,9.4,0.9,13.4c-0.3,0.3-0.6,0.6-0.9,0.9l0,0
			l0,0c-4-3.4-4.4-9.4-0.9-13.4C659,358.9,659.3,358.6,659.6,358.3z"/>
	</g>
	<g id="Group_286" transform="translate(119.7 86.835)" class="st1">
		<path id="Path_284" class="st2" d="M659.6,358.3L659.6,358.3L659.6,358.3c4,3.4,4.4,9.4,0.9,13.4c-0.3,0.3-0.6,0.6-0.9,0.9l0,0
			l0,0c-4-3.4-4.4-9.4-0.9-13.4C659,358.9,659.3,358.6,659.6,358.3z"/>
	</g>
	<g id="Group_287" transform="translate(143.64 86.835)" class="st1">
		<path id="Path_285" class="st2" d="M659.6,358.3L659.6,358.3L659.6,358.3c4,3.4,4.4,9.4,0.9,13.4c-0.3,0.3-0.6,0.6-0.9,0.9l0,0
			l0,0c-4-3.4-4.4-9.4-0.9-13.4C659,358.9,659.3,358.6,659.6,358.3z"/>
	</g>
	<g id="Group_288" transform="translate(167.58 86.835)" class="st1">
		<path id="Path_286" class="st2" d="M659.6,358.3L659.6,358.3L659.6,358.3c4,3.4,4.4,9.4,0.9,13.4c-0.3,0.3-0.6,0.6-0.9,0.9l0,0
			l0,0c-4-3.4-4.4-9.4-0.9-13.4C659,358.9,659.3,358.6,659.6,358.3z"/>
	</g>
	<g id="Group_289" transform="translate(191.521 86.835)" class="st1">
		<path id="Path_287" class="st2" d="M659.6,358.3L659.6,358.3L659.6,358.3c4,3.4,4.4,9.4,0.9,13.4c-0.3,0.3-0.6,0.6-0.9,0.9l0,0
			l0,0c-4-3.4-4.4-9.4-0.9-13.4C659,358.9,659.3,358.6,659.6,358.3z"/>
	</g>
	<g id="Group_290" transform="translate(215.419 86.835)" class="st1">
		<path id="Path_288" class="st2" d="M659.6,358.3L659.6,358.3L659.6,358.3c4,3.4,4.4,9.4,0.9,13.4c-0.3,0.3-0.6,0.6-0.9,0.9l0,0
			l0,0c-4-3.4-4.4-9.4-0.9-13.4C659,358.9,659.3,358.6,659.6,358.3z"/>
	</g>
	<g id="Group_291" transform="translate(239.401 86.835)" class="st1">
		<path id="Path_289" class="st2" d="M659.6,358.3L659.6,358.3L659.6,358.3c4,3.4,4.4,9.4,0.9,13.4c-0.3,0.3-0.6,0.6-0.9,0.9l0,0
			l0,0c-4-3.4-4.4-9.4-0.9-13.4C659,358.9,659.3,358.6,659.6,358.3z"/>
	</g>
	<g id="Group_292" transform="translate(11.658 115.796)" class="st1">
		<path id="Path_290" class="st2" d="M659.6,358.3L659.6,358.3L659.6,358.3c4,3.4,4.4,9.4,0.9,13.4c-0.3,0.3-0.6,0.7-0.9,0.9l0,0
			l0,0c-4-3.4-4.4-9.4-0.9-13.4C659,358.9,659.3,358.6,659.6,358.3z"/>
	</g>
	<g id="Group_293" transform="translate(35.639 115.796)" class="st1">
		<path id="Path_291" class="st2" d="M659.6,358.3L659.6,358.3L659.6,358.3c4,3.4,4.4,9.4,0.9,13.4c-0.3,0.3-0.6,0.7-0.9,0.9l0,0
			l0,0c-4-3.4-4.4-9.4-0.9-13.4C659,358.9,659.3,358.6,659.6,358.3z"/>
	</g>
	<g id="Group_294" transform="translate(59.519 115.796)" class="st1">
		<path id="Path_292" class="st2" d="M659.6,358.3L659.6,358.3L659.6,358.3c4,3.4,4.4,9.4,0.9,13.4c-0.3,0.3-0.6,0.7-0.9,0.9l0,0
			l0,0c-4-3.4-4.4-9.4-0.9-13.4C659,358.9,659.3,358.6,659.6,358.3z"/>
	</g>
	<g id="Group_295" transform="translate(83.459 115.796)" class="st1">
		<path id="Path_293" class="st2" d="M659.6,358.3L659.6,358.3L659.6,358.3c4,3.4,4.4,9.4,0.9,13.4c-0.3,0.3-0.6,0.7-0.9,0.9l0,0
			l0,0c-4-3.4-4.4-9.4-0.9-13.4C659,358.9,659.3,358.6,659.6,358.3z"/>
	</g>
	<g id="Group_296" transform="translate(107.399 115.796)" class="st1">
		<path id="Path_294" class="st2" d="M659.6,358.3L659.6,358.3L659.6,358.3c4,3.4,4.4,9.4,0.9,13.4c-0.3,0.3-0.6,0.7-0.9,0.9l0,0
			l0,0c-4-3.4-4.4-9.4-0.9-13.4C659,358.9,659.3,358.6,659.6,358.3z"/>
	</g>
	<g id="Group_297" transform="translate(131.339 115.796)" class="st1">
		<path id="Path_295" class="st2" d="M659.6,358.3L659.6,358.3L659.6,358.3c4,3.4,4.4,9.4,0.9,13.4c-0.3,0.3-0.6,0.7-0.9,0.9l0,0
			l0,0c-4-3.4-4.4-9.4-0.9-13.4C659,358.9,659.3,358.6,659.6,358.3z"/>
	</g>
	<g id="Group_298" transform="translate(155.279 115.796)" class="st1">
		<path id="Path_296" class="st2" d="M659.6,358.3L659.6,358.3L659.6,358.3c4,3.4,4.4,9.4,0.9,13.4c-0.3,0.3-0.6,0.7-0.9,0.9l0,0
			l0,0c-4-3.4-4.4-9.4-0.9-13.4C659,358.9,659.3,358.6,659.6,358.3z"/>
	</g>
	<g id="Group_299" transform="translate(179.219 115.796)" class="st1">
		<path id="Path_297" class="st2" d="M659.6,358.3L659.6,358.3L659.6,358.3c4,3.4,4.4,9.4,0.9,13.4c-0.3,0.3-0.6,0.7-0.9,0.9l0,0
			l0,0c-4-3.4-4.4-9.4-0.9-13.4C659,358.9,659.3,358.6,659.6,358.3z"/>
	</g>
	<g id="Group_300" transform="translate(203.097 115.796)" class="st1">
		<path id="Path_298" class="st2" d="M659.6,358.3L659.6,358.3L659.6,358.3c4,3.4,4.4,9.4,0.9,13.4c-0.3,0.3-0.6,0.7-0.9,0.9l0,0
			l0,0c-4-3.4-4.4-9.4-0.9-13.4C659,358.9,659.3,358.6,659.6,358.3z"/>
	</g>
	<g id="Group_301" transform="translate(227.078 115.796)" class="st1">
		<path id="Path_299" class="st2" d="M659.6,358.3L659.6,358.3L659.6,358.3c4,3.4,4.4,9.4,0.9,13.4c-0.3,0.3-0.6,0.7-0.9,0.9l0,0
			l0,0c-4-3.4-4.4-9.4-0.9-13.4C659,358.9,659.3,358.6,659.6,358.3z"/>
	</g>
	<g id="Group_302" transform="translate(0 29.023)" class="st1">
		<path id="Path_300" class="st2" d="M659.6,358.3L659.6,358.3L659.6,358.3c4,3.4,4.4,9.4,0.9,13.4c-0.3,0.3-0.6,0.6-0.9,0.9l0,0
			l0,0c-4-3.4-4.4-9.4-0.9-13.4C659,358.9,659.3,358.6,659.6,358.3z"/>
	</g>
	<g id="Group_303" transform="translate(23.981 29.023)" class="st1">
		<path id="Path_301" class="st2" d="M659.6,358.3L659.6,358.3L659.6,358.3c4,3.4,4.4,9.4,0.9,13.4c-0.3,0.3-0.6,0.6-0.9,0.9l0,0
			l0,0c-4-3.4-4.4-9.4-0.9-13.4C659,358.9,659.3,358.6,659.6,358.3z"/>
	</g>
	<g id="Group_304" transform="translate(47.88 29.023)" class="st1">
		<path id="Path_302" class="st2" d="M659.6,358.3L659.6,358.3L659.6,358.3c4,3.4,4.4,9.4,0.9,13.4c-0.3,0.3-0.6,0.6-0.9,0.9l0,0
			l0,0c-4-3.4-4.4-9.4-0.9-13.4C659,358.9,659.3,358.6,659.6,358.3z"/>
	</g>
	<g id="Group_305" transform="translate(71.82 29.023)" class="st1">
		<path id="Path_303" class="st2" d="M659.6,358.3L659.6,358.3L659.6,358.3c4,3.4,4.4,9.4,0.9,13.4c-0.3,0.3-0.6,0.6-0.9,0.9l0,0
			l0,0c-4-3.4-4.4-9.4-0.9-13.4C659,358.9,659.3,358.6,659.6,358.3z"/>
	</g>
	<g id="Group_306" transform="translate(95.76 29.023)" class="st1">
		<path id="Path_304" class="st2" d="M659.6,358.3L659.6,358.3L659.6,358.3c4,3.4,4.4,9.4,0.9,13.4c-0.3,0.3-0.6,0.6-0.9,0.9l0,0
			l0,0c-4-3.4-4.4-9.4-0.9-13.4C659,358.9,659.3,358.6,659.6,358.3z"/>
	</g>
	<g id="Group_307" transform="translate(119.7 29.023)" class="st1">
		<path id="Path_305" class="st2" d="M659.6,358.3L659.6,358.3L659.6,358.3c4,3.4,4.4,9.4,0.9,13.4c-0.3,0.3-0.6,0.6-0.9,0.9l0,0
			l0,0c-4-3.4-4.4-9.4-0.9-13.4C659,358.9,659.3,358.6,659.6,358.3z"/>
	</g>
	<g id="Group_308" transform="translate(143.64 29.023)" class="st1">
		<path id="Path_306" class="st2" d="M659.6,358.3L659.6,358.3L659.6,358.3c4,3.4,4.4,9.4,0.9,13.4c-0.3,0.3-0.6,0.6-0.9,0.9l0,0
			l0,0c-4-3.4-4.4-9.4-0.9-13.4C659,358.9,659.3,358.6,659.6,358.3z"/>
	</g>
	<g id="Group_309" transform="translate(167.58 29.023)" class="st1">
		<path id="Path_307" class="st2" d="M659.6,358.3L659.6,358.3L659.6,358.3c4,3.4,4.4,9.4,0.9,13.4c-0.3,0.3-0.6,0.6-0.9,0.9l0,0
			l0,0c-4-3.4-4.4-9.4-0.9-13.4C659,358.9,659.3,358.6,659.6,358.3z"/>
	</g>
	<g id="Group_310" transform="translate(191.521 29.023)" class="st1">
		<path id="Path_308" class="st2" d="M659.6,358.3L659.6,358.3L659.6,358.3c4,3.4,4.4,9.4,0.9,13.4c-0.3,0.3-0.6,0.6-0.9,0.9l0,0
			l0,0c-4-3.4-4.4-9.4-0.9-13.4C659,358.9,659.3,358.6,659.6,358.3z"/>
	</g>
	<g id="Group_311" transform="translate(215.419 29.023)" class="st1">
		<path id="Path_309" class="st2" d="M659.6,358.3L659.6,358.3L659.6,358.3c4,3.4,4.4,9.4,0.9,13.4c-0.3,0.3-0.6,0.6-0.9,0.9l0,0
			l0,0c-4-3.4-4.4-9.4-0.9-13.4C659,358.9,659.3,358.6,659.6,358.3z"/>
	</g>
	<g id="Group_312" transform="translate(239.401 29.023)" class="st1">
		<path id="Path_310" class="st2" d="M659.6,358.3L659.6,358.3L659.6,358.3c4,3.4,4.4,9.4,0.9,13.4c-0.3,0.3-0.6,0.6-0.9,0.9l0,0
			l0,0c-4-3.4-4.4-9.4-0.9-13.4C659,358.9,659.3,358.6,659.6,358.3z"/>
	</g>
	<g id="Group_313" transform="translate(11.658 57.898)" class="st1">
		<path id="Path_311" class="st2" d="M659.6,358.3L659.6,358.3L659.6,358.3c4,3.4,4.4,9.4,0.9,13.4c-0.3,0.3-0.6,0.7-0.9,0.9l0,0
			l0,0c-4-3.4-4.4-9.4-0.9-13.4C659,358.9,659.3,358.6,659.6,358.3z"/>
	</g>
	<g id="Group_314" transform="translate(35.639 57.898)" class="st1">
		<path id="Path_312" class="st2" d="M659.6,358.3L659.6,358.3L659.6,358.3c4,3.4,4.4,9.4,0.9,13.4c-0.3,0.3-0.6,0.7-0.9,0.9l0,0
			l0,0c-4-3.4-4.4-9.4-0.9-13.4C659,358.9,659.3,358.6,659.6,358.3z"/>
	</g>
	<g id="Group_315" transform="translate(59.519 57.898)" class="st1">
		<path id="Path_313" class="st2" d="M659.6,358.3L659.6,358.3L659.6,358.3c4,3.4,4.4,9.4,0.9,13.4c-0.3,0.3-0.6,0.7-0.9,0.9l0,0
			l0,0c-4-3.4-4.4-9.4-0.9-13.4C659,358.9,659.3,358.6,659.6,358.3z"/>
	</g>
	<g id="Group_316" transform="translate(83.459 57.898)" class="st1">
		<path id="Path_314" class="st2" d="M659.6,358.3L659.6,358.3L659.6,358.3c4,3.4,4.4,9.4,0.9,13.4c-0.3,0.3-0.6,0.7-0.9,0.9l0,0
			l0,0c-4-3.4-4.4-9.4-0.9-13.4C659,358.9,659.3,358.6,659.6,358.3z"/>
	</g>
	<g id="Group_317" transform="translate(107.399 57.898)" class="st1">
		<path id="Path_315" class="st2" d="M659.6,358.3L659.6,358.3L659.6,358.3c4,3.4,4.4,9.4,0.9,13.4c-0.3,0.3-0.6,0.7-0.9,0.9l0,0
			l0,0c-4-3.4-4.4-9.4-0.9-13.4C659,358.9,659.3,358.6,659.6,358.3z"/>
	</g>
	<g id="Group_318" transform="translate(131.339 57.898)" class="st1">
		<path id="Path_316" class="st2" d="M659.6,358.3L659.6,358.3L659.6,358.3c4,3.4,4.4,9.4,0.9,13.4c-0.3,0.3-0.6,0.7-0.9,0.9l0,0
			l0,0c-4-3.4-4.4-9.4-0.9-13.4C659,358.9,659.3,358.6,659.6,358.3z"/>
	</g>
	<g id="Group_319" transform="translate(155.279 57.898)" class="st1">
		<path id="Path_317" class="st2" d="M659.6,358.3L659.6,358.3L659.6,358.3c4,3.4,4.4,9.4,0.9,13.4c-0.3,0.3-0.6,0.7-0.9,0.9l0,0
			l0,0c-4-3.4-4.4-9.4-0.9-13.4C659,358.9,659.3,358.6,659.6,358.3z"/>
	</g>
	<g id="Group_320" transform="translate(179.219 57.898)" class="st1">
		<path id="Path_318" class="st2" d="M659.6,358.3L659.6,358.3L659.6,358.3c4,3.4,4.4,9.4,0.9,13.4c-0.3,0.3-0.6,0.7-0.9,0.9l0,0
			l0,0c-4-3.4-4.4-9.4-0.9-13.4C659,358.9,659.3,358.6,659.6,358.3z"/>
	</g>
	<g id="Group_321" transform="translate(203.097 57.898)" class="st1">
		<path id="Path_319" class="st2" d="M659.6,358.3L659.6,358.3L659.6,358.3c4,3.4,4.4,9.4,0.9,13.4c-0.3,0.3-0.6,0.7-0.9,0.9l0,0
			l0,0c-4-3.4-4.4-9.4-0.9-13.4C659,358.9,659.3,358.6,659.6,358.3z"/>
	</g>
	<g id="Group_322" transform="translate(227.078 57.898)" class="st1">
		<path id="Path_320" class="st2" d="M659.6,358.3L659.6,358.3L659.6,358.3c4,3.4,4.4,9.4,0.9,13.4c-0.3,0.3-0.6,0.7-0.9,0.9l0,0
			l0,0c-4-3.4-4.4-9.4-0.9-13.4C659,358.9,659.3,358.6,659.6,358.3z"/>
	</g>
	<g id="Group_323" transform="translate(11.658)" class="st1">
		<path id="Path_321" class="st2" d="M659.6,358.3L659.6,358.3L659.6,358.3c4,3.4,4.4,9.4,0.9,13.4c-0.3,0.3-0.6,0.6-0.9,0.9l0,0
			l0,0c-4-3.4-4.4-9.4-0.9-13.4C659,358.9,659.3,358.6,659.6,358.3z"/>
	</g>
	<g id="Group_324" transform="translate(35.639)" class="st1">
		<path id="Path_322" class="st2" d="M659.6,358.3L659.6,358.3L659.6,358.3c4,3.4,4.4,9.4,0.9,13.4c-0.3,0.3-0.6,0.6-0.9,0.9l0,0
			l0,0c-4-3.4-4.4-9.4-0.9-13.4C659,358.9,659.3,358.6,659.6,358.3z"/>
	</g>
	<g id="Group_325" transform="translate(59.519)" class="st1">
		<path id="Path_323" class="st2" d="M659.6,358.3L659.6,358.3L659.6,358.3c4,3.4,4.4,9.4,0.9,13.4c-0.3,0.3-0.6,0.6-0.9,0.9l0,0
			l0,0c-4-3.4-4.4-9.4-0.9-13.4C659,358.9,659.3,358.6,659.6,358.3z"/>
	</g>
	<g id="Group_326" transform="translate(83.459)" class="st1">
		<path id="Path_324" class="st2" d="M659.6,358.3L659.6,358.3L659.6,358.3c4,3.4,4.4,9.4,0.9,13.4c-0.3,0.3-0.6,0.6-0.9,0.9l0,0
			l0,0c-4-3.4-4.4-9.4-0.9-13.4C659,358.9,659.3,358.6,659.6,358.3z"/>
	</g>
	<g id="Group_327" transform="translate(107.399)" class="st1">
		<path id="Path_325" class="st2" d="M659.6,358.3L659.6,358.3L659.6,358.3c4,3.4,4.4,9.4,0.9,13.4c-0.3,0.3-0.6,0.6-0.9,0.9l0,0
			l0,0c-4-3.4-4.4-9.4-0.9-13.4C659,358.9,659.3,358.6,659.6,358.3z"/>
	</g>
	<g id="Group_328" transform="translate(131.339)" class="st1">
		<path id="Path_326" class="st2" d="M659.6,358.3L659.6,358.3L659.6,358.3c4,3.4,4.4,9.4,0.9,13.4c-0.3,0.3-0.6,0.6-0.9,0.9l0,0
			l0,0c-4-3.4-4.4-9.4-0.9-13.4C659,358.9,659.3,358.6,659.6,358.3z"/>
	</g>
	<g id="Group_329" transform="translate(155.279)" class="st1">
		<path id="Path_327" class="st2" d="M659.6,358.3L659.6,358.3L659.6,358.3c4,3.4,4.4,9.4,0.9,13.4c-0.3,0.3-0.6,0.6-0.9,0.9l0,0
			l0,0c-4-3.4-4.4-9.4-0.9-13.4C659,358.9,659.3,358.6,659.6,358.3z"/>
	</g>
	<g id="Group_330" transform="translate(179.219)" class="st1">
		<path id="Path_328" class="st2" d="M659.6,358.3L659.6,358.3L659.6,358.3c4,3.4,4.4,9.4,0.9,13.4c-0.3,0.3-0.6,0.6-0.9,0.9l0,0
			l0,0c-4-3.4-4.4-9.4-0.9-13.4C659,358.9,659.3,358.6,659.6,358.3z"/>
	</g>
	<g id="Group_331" transform="translate(203.097)" class="st1">
		<path id="Path_329" class="st2" d="M659.6,358.3L659.6,358.3L659.6,358.3c4,3.4,4.4,9.4,0.9,13.4c-0.3,0.3-0.6,0.6-0.9,0.9l0,0
			l0,0c-4-3.4-4.4-9.4-0.9-13.4C659,358.9,659.3,358.6,659.6,358.3z"/>
	</g>
	<g id="Group_332" transform="translate(227.078)" class="st1">
		<path id="Path_330" class="st2" d="M659.6,358.3L659.6,358.3L659.6,358.3c4,3.4,4.4,9.4,0.9,13.4c-0.3,0.3-0.6,0.6-0.9,0.9l0,0
			l0,0c-4-3.4-4.4-9.4-0.9-13.4C659,358.9,659.3,358.6,659.6,358.3z"/>
	</g>
</g>
<g id="Group_456" transform="translate(-4 0)" class="st0">
	<g id="Group_302_1_" transform="translate(4 48.708)" class="st1">
		<path id="Path_300_1_" class="st2" d="M656.5,458L656.5,458L656.5,458c6.7,5.8,7.4,15.8,1.6,22.5c-0.5,0.6-1,1.1-1.6,1.6l0,0l0,0
			c-6.6-5.8-7.3-15.9-1.5-22.5C655.4,459,655.9,458.5,656.5,458z"/>
	</g>
	<g id="Group_303_1_" transform="translate(44.246 48.708)" class="st1">
		<path id="Path_301_1_" class="st2" d="M656.5,458L656.5,458L656.5,458c6.7,5.8,7.4,15.8,1.6,22.5c-0.5,0.6-1,1.1-1.6,1.6l0,0l0,0
			c-6.6-5.8-7.3-15.9-1.6-22.5C655.4,459,655.9,458.5,656.5,458z"/>
	</g>
	<g id="Group_304_1_" transform="translate(84.206 48.708)" class="st1">
		<path id="Path_302_1_" class="st2" d="M656.5,458L656.5,458L656.5,458c6.7,5.8,7.4,15.8,1.6,22.5c-0.5,0.6-1,1.1-1.6,1.6l0,0l0,0
			c-6.6-5.8-7.3-15.9-1.5-22.5C655.4,459,655.9,458.5,656.5,458z"/>
	</g>
	<g id="Group_305_1_" transform="translate(124.309 48.708)" class="st1">
		<path id="Path_303_1_" class="st2" d="M656.5,458L656.5,458L656.5,458c6.7,5.8,7.4,15.8,1.6,22.5c-0.5,0.6-1,1.1-1.6,1.6l0,0l0,0
			c-6.6-5.8-7.3-15.9-1.6-22.5C655.4,459,655.9,458.5,656.5,458z"/>
	</g>
	<g id="Group_306_1_" transform="translate(164.412 48.708)" class="st1">
		<path id="Path_304_1_" class="st2" d="M656.5,458L656.5,458L656.5,458c6.7,5.8,7.4,15.8,1.6,22.5c-0.5,0.6-1,1.1-1.6,1.6l0,0l0,0
			c-6.6-5.8-7.3-15.9-1.6-22.5C655.4,459,655.9,458.5,656.5,458z"/>
	</g>
	<g id="Group_307_1_" transform="translate(204.515 48.708)" class="st1">
		<path id="Path_305_1_" class="st2" d="M656.5,458L656.5,458L656.5,458c6.7,5.8,7.4,15.8,1.6,22.5c-0.5,0.6-1,1.1-1.6,1.6l0,0l0,0
			c-6.6-5.8-7.3-15.9-1.6-22.5C655.4,459,655.9,458.5,656.5,458z"/>
	</g>
	<g id="Group_308_1_" transform="translate(244.618 48.708)" class="st1">
		<path id="Path_306_1_" class="st2" d="M656.5,458L656.5,458L656.5,458c6.7,5.8,7.4,15.8,1.6,22.5c-0.5,0.6-1,1.1-1.6,1.6l0,0l0,0
			c-6.6-5.8-7.3-15.9-1.6-22.5C655.4,459,655.9,458.5,656.5,458z"/>
	</g>
	<g id="Group_309_1_" transform="translate(284.721 48.708)" class="st1">
		<path id="Path_307_1_" class="st2" d="M656.5,458L656.5,458L656.5,458c6.7,5.8,7.4,15.8,1.6,22.5c-0.5,0.6-1,1.1-1.6,1.6l0,0l0,0
			c-6.6-5.8-7.3-15.9-1.6-22.5C655.4,459,655.9,458.5,656.5,458z"/>
	</g>
	<g id="Group_310_1_" transform="translate(324.825 48.708)" class="st1">
		<path id="Path_308_1_" class="st2" d="M656.5,458L656.5,458L656.5,458c6.7,5.8,7.4,15.8,1.6,22.5c-0.5,0.6-1,1.1-1.6,1.6l0,0l0,0
			c-6.6-5.8-7.3-15.9-1.6-22.5C655.4,459,655.9,458.5,656.5,458z"/>
	</g>
	<g id="Group_311_1_" transform="translate(364.785 48.708)" class="st1">
		<path id="Path_309_1_" class="st2" d="M656.5,458L656.5,458L656.5,458c6.7,5.8,7.4,15.8,1.6,22.5c-0.5,0.6-1,1.1-1.6,1.6l0,0l0,0
			c-6.6-5.8-7.3-15.9-1.6-22.5C655.4,459,655.9,458.5,656.5,458z"/>
	</g>
	<g id="Group_312_1_" transform="translate(405.031 48.708)" class="st1">
		<path id="Path_310_1_" class="st2" d="M656.5,458L656.5,458L656.5,458c6.7,5.8,7.4,15.8,1.6,22.5c-0.5,0.6-1,1.1-1.6,1.6l0,0l0,0
			c-6.6-5.8-7.3-15.9-1.6-22.5C655.4,459,655.9,458.5,656.5,458z"/>
	</g>
	<g id="Group_323_1_" transform="translate(23.566)" class="st1">
		<path id="Path_321_1_" class="st2" d="M656.5,458L656.5,458L656.5,458c6.7,5.8,7.4,15.8,1.6,22.5c-0.5,0.6-1,1.1-1.6,1.6l0,0l0,0
			c-6.6-5.8-7.3-15.9-1.6-22.5C655.4,459,655.9,458.5,656.5,458z"/>
	</g>
	<g id="Group_324_1_" transform="translate(63.812)" class="st1">
		<path id="Path_322_1_" class="st2" d="M656.5,458L656.5,458L656.5,458c6.7,5.8,7.4,15.8,1.6,22.5c-0.5,0.6-1,1.1-1.6,1.6l0,0l0,0
			c-6.6-5.8-7.3-15.9-1.6-22.5C655.4,459,655.9,458.5,656.5,458z"/>
	</g>
	<g id="Group_325_1_" transform="translate(103.702)" class="st1">
		<path id="Path_323_1_" class="st2" d="M656.5,458L656.5,458L656.5,458c6.7,5.8,7.4,15.8,1.6,22.5c-0.5,0.6-1,1.1-1.6,1.6l0,0l0,0
			c-6.6-5.8-7.3-15.9-1.6-22.5C655.4,459,655.9,458.5,656.5,458z"/>
	</g>
	<g id="Group_326_1_" transform="translate(143.806)" class="st1">
		<path id="Path_324_1_" class="st2" d="M656.5,458L656.5,458L656.5,458c6.7,5.8,7.4,15.8,1.6,22.5c-0.5,0.6-1,1.1-1.6,1.6l0,0l0,0
			c-6.6-5.8-7.3-15.9-1.6-22.5C655.4,459,655.9,458.5,656.5,458z"/>
	</g>
	<g id="Group_327_1_" transform="translate(183.908)" class="st1">
		<path id="Path_325_1_" class="st2" d="M656.5,458L656.5,458L656.5,458c6.7,5.8,7.4,15.8,1.6,22.5c-0.5,0.6-1,1.1-1.6,1.6l0,0l0,0
			c-6.6-5.8-7.3-15.9-1.6-22.5C655.4,459,655.9,458.5,656.5,458z"/>
	</g>
	<g id="Group_328_1_" transform="translate(224.012)" class="st1">
		<path id="Path_326_1_" class="st2" d="M656.5,458L656.5,458L656.5,458c6.7,5.8,7.4,15.8,1.6,22.5c-0.5,0.6-1,1.1-1.6,1.6l0,0l0,0
			c-6.6-5.8-7.3-15.9-1.6-22.5C655.4,459,655.9,458.5,656.5,458z"/>
	</g>
	<g id="Group_329_1_" transform="translate(264.114)" class="st1">
		<path id="Path_327_1_" class="st2" d="M656.5,458L656.5,458L656.5,458c6.7,5.8,7.4,15.8,1.6,22.5c-0.5,0.6-1,1.1-1.6,1.6l0,0l0,0
			c-6.6-5.8-7.3-15.9-1.6-22.5C655.4,459,655.9,458.5,656.5,458z"/>
	</g>
	<g id="Group_330_1_" transform="translate(304.218)" class="st1">
		<path id="Path_328_1_" class="st2" d="M656.5,458L656.5,458L656.5,458c6.7,5.8,7.4,15.8,1.6,22.5c-0.5,0.6-1,1.1-1.6,1.6l0,0l0,0
			c-6.6-5.8-7.3-15.9-1.6-22.5C655.4,459,655.9,458.5,656.5,458z"/>
	</g>
	<g id="Group_331_1_" transform="translate(344.105)" class="st1">
		<path id="Path_329_1_" class="st2" d="M656.5,458L656.5,458L656.5,458c6.7,5.8,7.4,15.8,1.6,22.5c-0.5,0.6-1,1.1-1.6,1.6l0,0l0,0
			c-6.6-5.8-7.3-15.9-1.6-22.5C655.4,459,655.9,458.5,656.5,458z"/>
	</g>
	<path id="Path_330_1_" class="st3" d="M1040.8,458L1040.8,458L1040.8,458c6.7,5.8,7.4,15.8,1.6,22.5c-0.5,0.6-1,1.1-1.6,1.6l0,0
		l0,0c-6.6-5.8-7.3-15.9-1.6-22.5C1039.8,459,1040.3,458.5,1040.8,458z"/>
	<g id="Group_431" transform="translate(445.246 48.708)" class="st1">
		<path id="Path_301-2" class="st2" d="M656.5,458L656.5,458L656.5,458c6.7,5.8,7.4,15.8,1.6,22.5c-0.5,0.6-1,1.1-1.6,1.6l0,0l0,0
			c-6.6-5.8-7.3-15.9-1.6-22.5C655.4,459,655.9,458.5,656.5,458z"/>
	</g>
	<g id="Group_432" transform="translate(485.206 48.708)" class="st1">
		<path id="Path_302-2" class="st2" d="M656.5,458L656.5,458L656.5,458c6.7,5.8,7.4,15.8,1.6,22.5c-0.5,0.6-1,1.1-1.6,1.6l0,0l0,0
			c-6.6-5.8-7.3-15.9-1.5-22.5C655.4,459,655.9,458.5,656.5,458z"/>
	</g>
	<g id="Group_433" transform="translate(525.31 48.708)" class="st1">
		<path id="Path_303-2" class="st2" d="M656.5,458L656.5,458L656.5,458c6.7,5.8,7.4,15.8,1.6,22.5c-0.5,0.6-1,1.1-1.6,1.6l0,0l0,0
			c-6.6-5.8-7.3-15.9-1.6-22.5C655.4,459,655.9,458.5,656.5,458z"/>
	</g>
	<g id="Group_434" transform="translate(565.412 48.708)" class="st1">
		<path id="Path_304-2" class="st2" d="M656.5,458L656.5,458L656.5,458c6.7,5.8,7.4,15.8,1.6,22.5c-0.5,0.6-1,1.1-1.6,1.6l0,0l0,0
			c-6.6-5.8-7.3-15.9-1.6-22.5C655.4,459,655.9,458.5,656.5,458z"/>
	</g>
	<g id="Group_436" transform="translate(424.566)" class="st1">
		<path id="Path_321-2" class="st2" d="M656.5,458L656.5,458L656.5,458c6.7,5.8,7.4,15.8,1.6,22.5c-0.5,0.6-1,1.1-1.6,1.6l0,0l0,0
			c-6.6-5.8-7.3-15.9-1.6-22.5C655.4,459,655.9,458.5,656.5,458z"/>
	</g>
	<g id="Group_437" transform="translate(464.812)" class="st1">
		<path id="Path_322-2" class="st2" d="M656.5,458L656.5,458L656.5,458c6.7,5.8,7.4,15.8,1.6,22.5c-0.5,0.6-1,1.1-1.6,1.6l0,0l0,0
			c-6.6-5.8-7.3-15.9-1.6-22.5C655.4,459,655.9,458.5,656.5,458z"/>
	</g>
	<g id="Group_438" transform="translate(504.702)" class="st1">
		<path id="Path_323-2" class="st2" d="M656.5,458L656.5,458L656.5,458c6.7,5.8,7.4,15.8,1.6,22.5c-0.5,0.6-1,1.1-1.6,1.6l0,0l0,0
			c-6.6-5.8-7.3-15.9-1.6-22.5C655.4,459,655.9,458.5,656.5,458z"/>
	</g>
	<g id="Group_439" transform="translate(544.806)" class="st1">
		<path id="Path_324-2" class="st2" d="M656.5,458L656.5,458L656.5,458c6.7,5.8,7.4,15.8,1.6,22.5c-0.5,0.6-1,1.1-1.6,1.6l0,0l0,0
			c-6.6-5.8-7.3-15.9-1.6-22.5C655.4,459,655.9,458.5,656.5,458z"/>
	</g>
	<g id="Group_440" transform="translate(584.908)" class="st1">
		<path id="Path_325-2" class="st2" d="M656.5,458L656.5,458L656.5,458c6.7,5.8,7.4,15.8,1.6,22.5c-0.5,0.6-1,1.1-1.6,1.6l0,0l0,0
			c-6.6-5.8-7.3-15.9-1.6-22.5C655.4,459,655.9,458.5,656.5,458z"/>
	</g>
</g>
<g id="Group_453" transform="translate(1715.378 -62) rotate(60)">
	<path id="Path_257_1_" class="st4" d="M86.4,112.8l0.9-0.7l0,0c582.7,506.7,582.7,1411.7,0,1918.4l0,0l-0.9-0.7
		C-495.3,1523.1-495.3,619.4,86.4,112.8z"/>
</g>
</svg>
